<?xml version="1.0" ?><!DOCTYPE svg  PUBLIC '-//W3C//DTD SVG 1.1//EN'  'http://www.w3.org/Graphics/SVG/1.1/DTD/svg11.dtd'><svg xmlns="http://www.w3.org/2000/svg" width="487.0" height="114.0" viewBox="819.0 136.0 487.0 114.0"><rect x="819.0" y="136.0" width="487.0" height="114.0" style="fill:white;fill-opacity:0.8" /><polygon points="1000.0,179.0 1000.0,164.0 1000.0,164.0 1000.0431573277363,162.90157265981017 1000.1723632316681,161.80991748943677 1000.3868211144326,160.73176490601733 1000.6852087718678,159.67376207875074 1001.065686544842,158.64243194688873 1001.5259086613629,157.64413300364635 1002.0630376990428,156.68502009397673 1002.6737620787508,155.77100646790538 1003.3543164815995,154.90772732337743 1004.1005050633884,154.10050506338834 1004.9077273233775,153.35431648159957 1005.7710064679054,152.67376207875074 1006.6850200939767,152.0630376990427 1007.6441330036463,151.52590866136285 1008.6424319468888,151.06568654484198 1009.6737620787508,150.68520877186785 1010.7317649060174,150.38682111443254 1011.8099174894368,150.17236323166807 1012.9015726598102,150.0431573277362 1014.0,150.0 1118.0,150.0 1118.0,150.0 1119.0984273401898,150.0431573277362 1120.1900825105631,150.17236323166807 1121.2682350939826,150.38682111443254 1122.3262379212492,150.68520877186785 1123.3575680531112,151.06568654484198 1124.3558669963536,151.52590866136285 1125.3149799060234,152.0630376990427 1126.2289935320946,152.67376207875074 1127.0922726766225,153.35431648159957 1127.8994949366117,154.10050506338834 1128.6456835184003,154.90772732337743 1129.3262379212492,155.77100646790538 1129.9369623009572,156.68502009397673 1130.4740913386372,157.64413300364635 1130.934313455158,158.64243194688873 1131.3147912281322,159.67376207875074 1131.6131788855675,160.73176490601733 1131.827636768332,161.80991748943677 1131.9568426722637,162.90157265981017 1132.0,164.0 1132.0,179.0" stroke="#000" fill="#ddd" stroke-width="3.0" fill-rule="evenodd" stroke-linejoin="round"/><polygon points="1000.0,179.0 1132.0,179.0 1132.0,223.0 1132.0,223.0 1131.9568426722637,224.09842734018983 1131.827636768332,225.19008251056323 1131.6131788855675,226.26823509398267 1131.3147912281322,227.32623792124926 1130.934313455158,228.35756805311127 1130.4740913386372,229.35586699635365 1129.9369623009572,230.3149799060233 1129.3262379212492,231.22899353209462 1128.6456835184003,232.09227267662257 1127.8994949366117,232.89949493661166 1127.0922726766225,233.64568351840043 1126.2289935320946,234.32623792124926 1125.3149799060234,234.9369623009573 1124.3558669963536,235.47409133863715 1123.3575680531112,235.93431345515802 1122.3262379212492,236.31479122813215 1121.2682350939826,236.61317888556746 1120.1900825105633,236.82763676833193 1119.0984273401898,236.9568426722638 1118.0,237.0 1014.0,237.0 1014.0,237.0 1012.9015726598102,236.9568426722638 1011.8099174894368,236.82763676833193 1010.7317649060174,236.61317888556746 1009.6737620787508,236.31479122813215 1008.6424319468888,235.93431345515802 1007.6441330036464,235.47409133863715 1006.6850200939767,234.9369623009573 1005.7710064679054,234.32623792124926 1004.9077273233775,233.64568351840043 1004.1005050633884,232.89949493661166 1003.3543164815995,232.09227267662257 1002.6737620787508,231.22899353209462 1002.0630376990428,230.3149799060233 1001.5259086613629,229.35586699635365 1001.065686544842,228.35756805311127 1000.6852087718679,227.32623792124926 1000.3868211144326,226.26823509398267 1000.1723632316681,225.19008251056323 1000.0431573277363,224.09842734018983 1000.0,179.0" stroke="#000" fill="#fff" stroke-width="3.0" fill-rule="evenodd" stroke-linejoin="round"/><text x="1066.0" y="173" fill="#000" stroke-width="0.0" text-anchor="middle" font-family="DejaVu Sans Mono" font-size="18.0pt" font-weight="bold">cancaner</text><polygon points="988.0,192.0 1000.0,198.0 988.0,204.0" fill="#000" fill-rule="evenodd" stroke-linejoin="round"/><text x="1002.0" y="204" fill="#000" stroke-width="0.0" font-family="DejaVu Sans Mono" font-size="12.0pt">n: </text><text x="1032.0" y="204" fill="#7f0055" stroke-width="0.0" font-family="DejaVu Sans Mono" font-size="12.0pt">int</text><polygon points="988.0,211.0 1000.0,217.0 988.0,223.0" fill="#000" fill-rule="evenodd" stroke-linejoin="round"/><text x="1002.0" y="223" fill="#000" stroke-width="0.0" font-family="DejaVu Sans Mono" font-size="12.0pt">cri: </text><text x="1052.0" y="223" fill="#7f0055" stroke-width="0.0" font-family="DejaVu Sans Mono" font-size="12.0pt">str</text><polygon points="1120.0,202.0 1132.0,208.0 1120.0,214.0" fill="#000" fill-rule="evenodd" stroke-linejoin="round"/><text x="1135.0" y="204" fill="#000" stroke-width="0.0" font-family="DejaVu Sans Mono" font-size="12.0pt"></text><text x="1135.0" y="204" fill="#7f0055" stroke-width="0.0" font-family="DejaVu Sans Mono" font-size="12.0pt">str</text><circle cx="900.0" cy="175.0" r="6.0" stroke="#000" fill="#000"/><text x="880.0" y="161" fill="#000" stroke-width="0.0" font-family="DejaVu Sans Mono" font-size="12.0pt">2: </text><text x="910.0" y="161" fill="#7f0055" stroke-width="0.0" font-family="DejaVu Sans Mono" font-size="12.0pt">int</text><circle cx="900.0" cy="230.0" r="6.0" stroke="#000" fill="#000"/><text x="830.0" y="216" fill="#000" stroke-width="0.0" font-family="DejaVu Sans Mono" font-size="12.0pt">&quot;coin&quot;: </text><text x="910.0" y="216" fill="#7f0055" stroke-width="0.0" font-family="DejaVu Sans Mono" font-size="12.0pt">str</text><circle cx="1255.0" cy="208.0" r="6.0" stroke="#000" fill="#000"/><text x="1185.0" y="194" fill="#000" stroke-width="0.0" font-family="DejaVu Sans Mono" font-size="12.0pt">chant1: </text><text x="1265.0" y="194" fill="#7f0055" stroke-width="0.0" font-family="DejaVu Sans Mono" font-size="12.0pt">str</text><path d="M1000.0,198.0 Q975.0,198.0 962.5,192.0 T937.5,180.5 T900.0,175.0" stroke="#000" fill="none"/><path d="M1000.0,217.0 Q975.0,217.0 962.5,220.0 T937.5,226.5 T900.0,230.0" stroke="#000" fill="none"/><path d="M1132.0,208.0 Q1162.0,208.0 1177.5,208.0 T1208.5,208.0 T1255.0,208.0" stroke="#000" fill="none"/></svg>