<?xml version="1.0" ?><!DOCTYPE svg  PUBLIC '-//W3C//DTD SVG 1.1//EN'  'http://www.w3.org/Graphics/SVG/1.1/DTD/svg11.dtd'><svg xmlns="http://www.w3.org/2000/svg" width="158.0" height="94.0" viewBox="87.0 87.0 158.0 94.0"><rect x="87.0" y="87.0" width="158.0" height="94.0" style="fill:white;fill-opacity:0.8" /><polygon points="100.0,129.0 100.0,114.0 100.0,114.0 100.04315732773621,112.90157265981017 100.17236323166807,111.80991748943677 100.38682111443252,110.73176490601733 100.68520877186785,109.67376207875074 101.06568654484198,108.64243194688875 101.52590866136285,107.64413300364635 102.06303769904271,106.68502009397672 102.67376207875074,105.77100646790538 103.35431648159957,104.90772732337743 104.10050506338834,104.10050506338834 104.90772732337743,103.35431648159957 105.77100646790538,102.67376207875074 106.68502009397672,102.06303769904271 107.64413300364635,101.52590866136285 108.64243194688873,101.06568654484198 109.67376207875074,100.68520877186785 110.73176490601733,100.38682111443252 111.80991748943677,100.17236323166807 112.90157265981016,100.04315732773621 114.0,100.0 218.0,100.0 218.0,100.0 219.09842734018983,100.04315732773621 220.19008251056323,100.17236323166807 221.26823509398267,100.38682111443252 222.32623792124926,100.68520877186785 223.35756805311127,101.06568654484198 224.35586699635365,101.52590866136285 225.31497990602327,102.06303769904271 226.22899353209462,102.67376207875074 227.09227267662257,103.35431648159957 227.89949493661166,104.10050506338834 228.64568351840043,104.90772732337742 229.32623792124926,105.77100646790538 229.9369623009573,106.68502009397672 230.47409133863715,107.64413300364635 230.93431345515802,108.64243194688873 231.31479122813215,109.67376207875073 231.61317888556746,110.73176490601733 231.82763676833193,111.80991748943677 231.9568426722638,112.90157265981016 232.0,114.0 232.0,129.0" stroke="#000" fill="#ddd" stroke-width="3.0" fill-rule="evenodd" stroke-linejoin="round"/><polygon points="100.0,129.0 232.0,129.0 232.0,154.0 232.0,154.0 231.9568426722638,155.09842734018983 231.82763676833193,156.19008251056323 231.61317888556746,157.26823509398267 231.31479122813215,158.32623792124926 230.93431345515802,159.35756805311127 230.47409133863715,160.35586699635365 229.9369623009573,161.3149799060233 229.32623792124926,162.22899353209462 228.64568351840043,163.09227267662257 227.89949493661166,163.89949493661166 227.09227267662257,164.64568351840043 226.22899353209462,165.32623792124926 225.3149799060233,165.9369623009573 224.35586699635365,166.47409133863715 223.35756805311127,166.93431345515802 222.32623792124926,167.31479122813215 221.26823509398267,167.61317888556746 220.19008251056323,167.82763676833193 219.09842734018983,167.9568426722638 218.0,168.0 114.0,168.0 114.0,168.0 112.90157265981017,167.9568426722638 111.80991748943677,167.82763676833193 110.73176490601733,167.61317888556746 109.67376207875074,167.31479122813215 108.64243194688875,166.93431345515802 107.64413300364635,166.47409133863715 106.68502009397672,165.9369623009573 105.77100646790538,165.32623792124926 104.90772732337743,164.64568351840043 104.10050506338834,163.89949493661166 103.35431648159957,163.09227267662257 102.67376207875074,162.22899353209462 102.06303769904271,161.3149799060233 101.52590866136285,160.35586699635365 101.06568654484198,159.35756805311127 100.68520877186785,158.32623792124926 100.38682111443254,157.26823509398267 100.17236323166807,156.19008251056323 100.04315732773621,155.09842734018983 100.0,129.0" stroke="#000" fill="#fff" stroke-width="3.0" fill-rule="evenodd" stroke-linejoin="round"/><text x="166.0" y="123" fill="#000" stroke-width="0.0" text-anchor="middle" font-family="DejaVu Sans Mono" font-size="18.0pt" font-weight="bold">caqueter</text></svg>