<?xml version="1.0" ?><!DOCTYPE svg  PUBLIC '-//W3C//DTD SVG 1.1//EN'  'http://www.w3.org/Graphics/SVG/1.1/DTD/svg11.dtd'><svg xmlns="http://www.w3.org/2000/svg" width="1026.0" height="114.0" viewBox="119.0 136.0 1026.0 114.0"><rect x="119.0" y="136.0" width="1026.0" height="114.0" style="fill:white;fill-opacity:0.8" /><polygon points="300.0,179.0 300.0,164.0 300.0,164.0 300.0431573277362,162.90157265981017 300.1723632316681,161.80991748943677 300.3868211144325,160.73176490601733 300.68520877186785,159.67376207875074 301.065686544842,158.64243194688873 301.52590866136285,157.64413300364635 302.0630376990427,156.68502009397673 302.6737620787507,155.77100646790538 303.35431648159954,154.90772732337743 304.1005050633883,154.10050506338834 304.9077273233774,153.35431648159957 305.77100646790535,152.67376207875074 306.68502009397673,152.0630376990427 307.64413300364635,151.52590866136285 308.64243194688873,151.06568654484198 309.6737620787507,150.68520877186785 310.7317649060173,150.38682111443254 311.80991748943677,150.17236323166807 312.90157265981014,150.0431573277362 314.0,150.0 418.0,150.0 418.0,150.0 419.09842734018986,150.0431573277362 420.19008251056323,150.17236323166807 421.26823509398264,150.38682111443254 422.3262379212493,150.68520877186785 423.35756805311127,151.06568654484198 424.35586699635365,151.52590866136285 425.31497990602327,152.0630376990427 426.2289935320946,152.67376207875074 427.0922726766226,153.35431648159957 427.8994949366117,154.10050506338834 428.6456835184004,154.90772732337743 429.3262379212493,155.77100646790538 429.9369623009573,156.68502009397673 430.47409133863715,157.64413300364635 430.934313455158,158.64243194688873 431.31479122813215,159.67376207875074 431.6131788855675,160.73176490601733 431.8276367683319,161.80991748943677 431.9568426722638,162.90157265981017 432.0,164.0 432.0,179.0" stroke="#000" fill="#ddd" stroke-width="3.0" fill-rule="evenodd" stroke-linejoin="round"/><polygon points="300.0,179.0 432.0,179.0 432.0,223.0 432.0,223.0 431.9568426722638,224.09842734018983 431.8276367683319,225.19008251056323 431.6131788855675,226.26823509398267 431.31479122813215,227.32623792124926 430.934313455158,228.35756805311127 430.47409133863715,229.35586699635365 429.9369623009573,230.3149799060233 429.3262379212493,231.22899353209462 428.64568351840046,232.09227267662257 427.8994949366117,232.89949493661166 427.0922726766226,233.64568351840043 426.22899353209465,234.32623792124926 425.31497990602327,234.9369623009573 424.35586699635365,235.47409133863715 423.35756805311127,235.93431345515802 422.3262379212493,236.31479122813215 421.2682350939827,236.61317888556746 420.19008251056323,236.82763676833193 419.09842734018986,236.9568426722638 418.0,237.0 314.0,237.0 314.0,237.0 312.9015726598102,236.9568426722638 311.80991748943677,236.82763676833193 310.7317649060173,236.61317888556746 309.6737620787507,236.31479122813215 308.64243194688873,235.93431345515802 307.64413300364635,235.47409133863715 306.68502009397673,234.9369623009573 305.77100646790535,234.32623792124926 304.90772732337746,233.64568351840043 304.1005050633883,232.89949493661166 303.35431648159954,232.09227267662257 302.6737620787507,231.22899353209462 302.0630376990427,230.3149799060233 301.52590866136285,229.35586699635365 301.065686544842,228.35756805311127 300.68520877186785,227.32623792124926 300.3868211144325,226.26823509398267 300.1723632316681,225.19008251056323 300.0431573277362,224.09842734018983 300.0,179.0" stroke="#000" fill="#fff" stroke-width="3.0" fill-rule="evenodd" stroke-linejoin="round"/><text x="366.0" y="173" fill="#000" stroke-width="0.0" text-anchor="middle" font-family="DejaVu Sans Mono" font-size="18.0pt" font-weight="bold">cancaner</text><polygon points="650.0,179.0 650.0,164.0 650.0,164.0 650.0431573277363,162.90157265981017 650.1723632316681,161.80991748943677 650.3868211144326,160.73176490601733 650.6852087718678,159.67376207875074 651.065686544842,158.64243194688873 651.5259086613629,157.64413300364635 652.0630376990428,156.68502009397673 652.6737620787508,155.77100646790538 653.3543164815995,154.90772732337743 654.1005050633884,154.10050506338834 654.9077273233775,153.35431648159957 655.7710064679054,152.67376207875074 656.6850200939767,152.0630376990427 657.6441330036463,151.52590866136285 658.6424319468888,151.06568654484198 659.6737620787508,150.68520877186785 660.7317649060174,150.38682111443254 661.8099174894368,150.17236323166807 662.9015726598102,150.0431573277362 664.0,150.0 768.0,150.0 768.0,150.0 769.0984273401898,150.0431573277362 770.1900825105632,150.17236323166807 771.2682350939826,150.38682111443254 772.3262379212492,150.68520877186785 773.3575680531112,151.06568654484198 774.3558669963536,151.52590866136285 775.3149799060233,152.0630376990427 776.2289935320946,152.67376207875074 777.0922726766225,153.35431648159957 777.8994949366116,154.10050506338834 778.6456835184005,154.90772732337743 779.3262379212492,155.77100646790538 779.9369623009572,156.68502009397673 780.4740913386371,157.64413300364635 780.934313455158,158.64243194688873 781.3147912281321,159.67376207875074 781.6131788855674,160.73176490601733 781.8276367683319,161.80991748943677 781.9568426722637,162.90157265981017 782.0,164.0 782.0,179.0" stroke="#000" fill="#ddd" stroke-width="3.0" fill-rule="evenodd" stroke-linejoin="round"/><polygon points="650.0,179.0 782.0,179.0 782.0,223.0 782.0,223.0 781.9568426722637,224.09842734018983 781.8276367683319,225.19008251056323 781.6131788855674,226.26823509398267 781.3147912281321,227.32623792124926 780.934313455158,228.35756805311127 780.4740913386371,229.35586699635365 779.9369623009572,230.3149799060233 779.3262379212492,231.22899353209462 778.6456835184005,232.09227267662257 777.8994949366116,232.89949493661166 777.0922726766225,233.64568351840043 776.2289935320946,234.32623792124926 775.3149799060233,234.9369623009573 774.3558669963537,235.47409133863715 773.3575680531112,235.93431345515802 772.3262379212492,236.31479122813215 771.2682350939826,236.61317888556746 770.1900825105632,236.82763676833193 769.0984273401898,236.9568426722638 768.0,237.0 664.0,237.0 664.0,237.0 662.9015726598102,236.9568426722638 661.8099174894368,236.82763676833193 660.7317649060174,236.61317888556746 659.6737620787508,236.31479122813215 658.6424319468888,235.93431345515802 657.6441330036464,235.47409133863715 656.6850200939767,234.9369623009573 655.7710064679054,234.32623792124926 654.9077273233775,233.64568351840043 654.1005050633884,232.89949493661166 653.3543164815995,232.09227267662257 652.6737620787508,231.22899353209462 652.0630376990428,230.3149799060233 651.5259086613629,229.35586699635365 651.065686544842,228.35756805311127 650.6852087718679,227.32623792124926 650.3868211144326,226.26823509398267 650.1723632316681,225.19008251056323 650.0431573277363,224.09842734018983 650.0,179.0" stroke="#000" fill="#fff" stroke-width="3.0" fill-rule="evenodd" stroke-linejoin="round"/><text x="716.0" y="173" fill="#000" stroke-width="0.0" text-anchor="middle" font-family="DejaVu Sans Mono" font-size="18.0pt" font-weight="bold">cancaner</text><polygon points="1000.0,179.0 1000.0,164.0 1000.0,164.0 1000.0431573277363,162.90157265981017 1000.1723632316681,161.80991748943677 1000.3868211144326,160.73176490601733 1000.6852087718678,159.67376207875074 1001.065686544842,158.64243194688873 1001.5259086613629,157.64413300364635 1002.0630376990428,156.68502009397673 1002.6737620787508,155.77100646790538 1003.3543164815995,154.90772732337743 1004.1005050633884,154.10050506338834 1004.9077273233775,153.35431648159957 1005.7710064679054,152.67376207875074 1006.6850200939767,152.0630376990427 1007.6441330036463,151.52590866136285 1008.6424319468888,151.06568654484198 1009.6737620787508,150.68520877186785 1010.7317649060174,150.38682111443254 1011.8099174894368,150.17236323166807 1012.9015726598102,150.0431573277362 1014.0,150.0 1118.0,150.0 1118.0,150.0 1119.0984273401898,150.0431573277362 1120.1900825105631,150.17236323166807 1121.2682350939826,150.38682111443254 1122.3262379212492,150.68520877186785 1123.3575680531112,151.06568654484198 1124.3558669963536,151.52590866136285 1125.3149799060234,152.0630376990427 1126.2289935320946,152.67376207875074 1127.0922726766225,153.35431648159957 1127.8994949366117,154.10050506338834 1128.6456835184003,154.90772732337743 1129.3262379212492,155.77100646790538 1129.9369623009572,156.68502009397673 1130.4740913386372,157.64413300364635 1130.934313455158,158.64243194688873 1131.3147912281322,159.67376207875074 1131.6131788855675,160.73176490601733 1131.827636768332,161.80991748943677 1131.9568426722637,162.90157265981017 1132.0,164.0 1132.0,179.0" stroke="#000" fill="#ddd" stroke-width="3.0" fill-rule="evenodd" stroke-linejoin="round"/><polygon points="1000.0,179.0 1132.0,179.0 1132.0,223.0 1132.0,223.0 1131.9568426722637,224.09842734018983 1131.827636768332,225.19008251056323 1131.6131788855675,226.26823509398267 1131.3147912281322,227.32623792124926 1130.934313455158,228.35756805311127 1130.4740913386372,229.35586699635365 1129.9369623009572,230.3149799060233 1129.3262379212492,231.22899353209462 1128.6456835184003,232.09227267662257 1127.8994949366117,232.89949493661166 1127.0922726766225,233.64568351840043 1126.2289935320946,234.32623792124926 1125.3149799060234,234.9369623009573 1124.3558669963536,235.47409133863715 1123.3575680531112,235.93431345515802 1122.3262379212492,236.31479122813215 1121.2682350939826,236.61317888556746 1120.1900825105633,236.82763676833193 1119.0984273401898,236.9568426722638 1118.0,237.0 1014.0,237.0 1014.0,237.0 1012.9015726598102,236.9568426722638 1011.8099174894368,236.82763676833193 1010.7317649060174,236.61317888556746 1009.6737620787508,236.31479122813215 1008.6424319468888,235.93431345515802 1007.6441330036464,235.47409133863715 1006.6850200939767,234.9369623009573 1005.7710064679054,234.32623792124926 1004.9077273233775,233.64568351840043 1004.1005050633884,232.89949493661166 1003.3543164815995,232.09227267662257 1002.6737620787508,231.22899353209462 1002.0630376990428,230.3149799060233 1001.5259086613629,229.35586699635365 1001.065686544842,228.35756805311127 1000.6852087718679,227.32623792124926 1000.3868211144326,226.26823509398267 1000.1723632316681,225.19008251056323 1000.0431573277363,224.09842734018983 1000.0,179.0" stroke="#000" fill="#fff" stroke-width="3.0" fill-rule="evenodd" stroke-linejoin="round"/><text x="1066.0" y="173" fill="#000" stroke-width="0.0" text-anchor="middle" font-family="DejaVu Sans Mono" font-size="18.0pt" font-weight="bold">cancaner</text><polygon points="288.0,192.0 300.0,198.0 288.0,204.0" fill="#000" fill-rule="evenodd" stroke-linejoin="round"/><text x="302.0" y="204" fill="#000" stroke-width="0.0" font-family="DejaVu Sans Mono" font-size="12.0pt">n: </text><text x="332.0" y="204" fill="#7f0055" stroke-width="0.0" font-family="DejaVu Sans Mono" font-size="12.0pt">int</text><polygon points="288.0,211.0 300.0,217.0 288.0,223.0" fill="#000" fill-rule="evenodd" stroke-linejoin="round"/><text x="302.0" y="223" fill="#000" stroke-width="0.0" font-family="DejaVu Sans Mono" font-size="12.0pt">cri: </text><text x="352.0" y="223" fill="#7f0055" stroke-width="0.0" font-family="DejaVu Sans Mono" font-size="12.0pt">str</text><polygon points="638.0,192.0 650.0,198.0 638.0,204.0" fill="#000" fill-rule="evenodd" stroke-linejoin="round"/><text x="652.0" y="204" fill="#000" stroke-width="0.0" font-family="DejaVu Sans Mono" font-size="12.0pt">n: </text><text x="682.0" y="204" fill="#7f0055" stroke-width="0.0" font-family="DejaVu Sans Mono" font-size="12.0pt">int</text><polygon points="638.0,211.0 650.0,217.0 638.0,223.0" fill="#000" fill-rule="evenodd" stroke-linejoin="round"/><text x="652.0" y="223" fill="#000" stroke-width="0.0" font-family="DejaVu Sans Mono" font-size="12.0pt">cri: </text><text x="702.0" y="223" fill="#7f0055" stroke-width="0.0" font-family="DejaVu Sans Mono" font-size="12.0pt">str</text><polygon points="988.0,192.0 1000.0,198.0 988.0,204.0" fill="#000" fill-rule="evenodd" stroke-linejoin="round"/><text x="1002.0" y="204" fill="#000" stroke-width="0.0" font-family="DejaVu Sans Mono" font-size="12.0pt">n: </text><text x="1032.0" y="204" fill="#7f0055" stroke-width="0.0" font-family="DejaVu Sans Mono" font-size="12.0pt">int</text><polygon points="988.0,211.0 1000.0,217.0 988.0,223.0" fill="#000" fill-rule="evenodd" stroke-linejoin="round"/><text x="1002.0" y="223" fill="#000" stroke-width="0.0" font-family="DejaVu Sans Mono" font-size="12.0pt">cri: </text><text x="1052.0" y="223" fill="#7f0055" stroke-width="0.0" font-family="DejaVu Sans Mono" font-size="12.0pt">str</text><circle cx="200.0" cy="175.0" r="6.0" stroke="#000" fill="#000"/><text x="180.0" y="161" fill="#000" stroke-width="0.0" font-family="DejaVu Sans Mono" font-size="12.0pt">1: </text><text x="210.0" y="161" fill="#7f0055" stroke-width="0.0" font-family="DejaVu Sans Mono" font-size="12.0pt">int</text><circle cx="200.0" cy="230.0" r="6.0" stroke="#000" fill="#000"/><text x="130.0" y="216" fill="#000" stroke-width="0.0" font-family="DejaVu Sans Mono" font-size="12.0pt">&quot;QUAK&quot;: </text><text x="210.0" y="216" fill="#7f0055" stroke-width="0.0" font-family="DejaVu Sans Mono" font-size="12.0pt">str</text><circle cx="550.0" cy="175.0" r="6.0" stroke="#000" fill="#000"/><text x="530.0" y="161" fill="#000" stroke-width="0.0" font-family="DejaVu Sans Mono" font-size="12.0pt">1: </text><text x="560.0" y="161" fill="#7f0055" stroke-width="0.0" font-family="DejaVu Sans Mono" font-size="12.0pt">int</text><circle cx="550.0" cy="230.0" r="6.0" stroke="#000" fill="#000"/><text x="480.0" y="216" fill="#000" stroke-width="0.0" font-family="DejaVu Sans Mono" font-size="12.0pt">&quot;COIN&quot;: </text><text x="560.0" y="216" fill="#7f0055" stroke-width="0.0" font-family="DejaVu Sans Mono" font-size="12.0pt">str</text><circle cx="900.0" cy="230.0" r="6.0" stroke="#000" fill="#000"/><text x="820.0" y="216" fill="#000" stroke-width="0.0" font-family="DejaVu Sans Mono" font-size="12.0pt">&quot;QUACK&quot;: </text><text x="910.0" y="216" fill="#7f0055" stroke-width="0.0" font-family="DejaVu Sans Mono" font-size="12.0pt">str</text><circle cx="900.0" cy="175.0" r="6.0" stroke="#000" fill="#000"/><text x="880.0" y="161" fill="#000" stroke-width="0.0" font-family="DejaVu Sans Mono" font-size="12.0pt">2: </text><text x="910.0" y="161" fill="#7f0055" stroke-width="0.0" font-family="DejaVu Sans Mono" font-size="12.0pt">int</text><path d="M300.0,198.0 Q275.0,198.0 262.5,192.0 T237.5,180.5 T200.0,175.0" stroke="#000" fill="none"/><path d="M300.0,217.0 Q275.0,217.0 262.5,220.0 T237.5,226.5 T200.0,230.0" stroke="#000" fill="none"/><path d="M650.0,198.0 Q625.0,198.0 612.5,192.0 T587.5,180.5 T550.0,175.0" stroke="#000" fill="none"/><path d="M650.0,217.0 Q625.0,217.0 612.5,220.0 T587.5,226.5 T550.0,230.0" stroke="#000" fill="none"/><path d="M1000.0,198.0 Q975.0,198.0 962.5,192.0 T937.5,180.5 T900.0,175.0" stroke="#000" fill="none"/><path d="M1000.0,217.0 Q975.0,217.0 962.5,220.0 T937.5,226.5 T900.0,230.0" stroke="#000" fill="none"/></svg>