<?xml version="1.0" ?><!DOCTYPE svg  PUBLIC '-//W3C//DTD SVG 1.1//EN'  'http://www.w3.org/Graphics/SVG/1.1/DTD/svg11.dtd'><svg xmlns="http://www.w3.org/2000/svg" width="199.0" height="113.0" viewBox="668.0 206.0 199.0 113.0"><rect x="668.0" y="206.0" width="199.0" height="113.0" style="fill:white;fill-opacity:0.8" /><polygon points="691.0,248.0 691.0,233.0 691.0,233.0 691.0431573277363,231.90157265981017 691.1723632316681,230.80991748943677 691.3868211144326,229.73176490601733 691.6852087718678,228.67376207875074 692.065686544842,227.64243194688873 692.5259086613629,226.64413300364635 693.0630376990428,225.68502009397673 693.6737620787508,224.77100646790538 694.3543164815995,223.90772732337743 695.1005050633884,223.10050506338834 695.9077273233775,222.35431648159957 696.7710064679054,221.67376207875074 697.6850200939767,221.0630376990427 698.6441330036463,220.52590866136285 699.6424319468888,220.06568654484198 700.6737620787508,219.68520877186785 701.7317649060174,219.38682111443254 702.8099174894368,219.17236323166807 703.9015726598102,219.0431573277362 705.0,219.0 809.0,219.0 809.0,219.0 810.0984273401898,219.0431573277362 811.1900825105632,219.17236323166807 812.2682350939826,219.38682111443254 813.3262379212492,219.68520877186785 814.3575680531112,220.06568654484198 815.3558669963536,220.52590866136285 816.3149799060233,221.0630376990427 817.2289935320946,221.67376207875074 818.0922726766225,222.35431648159957 818.8994949366116,223.10050506338834 819.6456835184005,223.90772732337743 820.3262379212492,224.77100646790538 820.9369623009572,225.68502009397673 821.4740913386371,226.64413300364635 821.934313455158,227.64243194688873 822.3147912281321,228.67376207875074 822.6131788855674,229.73176490601733 822.8276367683319,230.80991748943677 822.9568426722637,231.90157265981017 823.0,233.0 823.0,248.0" stroke="#000" fill="#ddd" stroke-width="3.0" fill-rule="evenodd" stroke-linejoin="round"/><polygon points="691.0,248.0 823.0,248.0 823.0,292.0 823.0,292.0 822.9568426722637,293.0984273401898 822.8276367683319,294.19008251056323 822.6131788855674,295.2682350939827 822.3147912281321,296.3262379212493 821.934313455158,297.35756805311127 821.4740913386371,298.35586699635365 820.9369623009572,299.31497990602327 820.3262379212492,300.22899353209465 819.6456835184005,301.09227267662254 818.8994949366116,301.8994949366117 818.0922726766225,302.64568351840046 817.2289935320946,303.3262379212493 816.3149799060233,303.9369623009573 815.3558669963537,304.47409133863715 814.3575680531112,304.934313455158 813.3262379212492,305.31479122813215 812.2682350939826,305.6131788855675 811.1900825105632,305.8276367683319 810.0984273401898,305.9568426722638 809.0,306.0 705.0,306.0 705.0,306.0 703.9015726598102,305.9568426722638 702.8099174894368,305.8276367683319 701.7317649060174,305.6131788855675 700.6737620787508,305.31479122813215 699.6424319468888,304.934313455158 698.6441330036464,304.47409133863715 697.6850200939767,303.9369623009573 696.7710064679054,303.3262379212493 695.9077273233775,302.64568351840046 695.1005050633884,301.8994949366117 694.3543164815995,301.0922726766226 693.6737620787508,300.22899353209465 693.0630376990428,299.31497990602327 692.5259086613629,298.35586699635365 692.065686544842,297.35756805311127 691.6852087718679,296.3262379212493 691.3868211144326,295.2682350939827 691.1723632316681,294.19008251056323 691.0431573277363,293.09842734018986 691.0,248.0" stroke="#000" fill="#fff" stroke-width="3.0" fill-rule="evenodd" stroke-linejoin="round"/><text x="757.0" y="242" fill="#000" stroke-width="0.0" text-anchor="middle" font-family="DejaVu Sans Mono" font-size="18.0pt" font-weight="bold">cancaner</text><polygon points="679.0,261.0 691.0,267.0 679.0,273.0" fill="#000" fill-rule="evenodd" stroke-linejoin="round"/><text x="693.0" y="273" fill="#000" stroke-width="0.0" font-family="DejaVu Sans Mono" font-size="12.0pt">n: </text><text x="723.0" y="273" fill="#7f0055" stroke-width="0.0" font-family="DejaVu Sans Mono" font-size="12.0pt">int</text><polygon points="679.0,280.0 691.0,286.0 679.0,292.0" fill="#000" fill-rule="evenodd" stroke-linejoin="round"/><text x="693.0" y="292" fill="#000" stroke-width="0.0" font-family="DejaVu Sans Mono" font-size="12.0pt">cri: </text><text x="743.0" y="292" fill="#7f0055" stroke-width="0.0" font-family="DejaVu Sans Mono" font-size="12.0pt">str</text><polygon points="811.0,271.0 823.0,277.0 811.0,283.0" fill="#000" fill-rule="evenodd" stroke-linejoin="round"/><text x="826.0" y="273" fill="#000" stroke-width="0.0" font-family="DejaVu Sans Mono" font-size="12.0pt"></text><text x="826.0" y="273" fill="#7f0055" stroke-width="0.0" font-family="DejaVu Sans Mono" font-size="12.0pt">str</text></svg>