<?xml version="1.0" ?><!DOCTYPE svg  PUBLIC '-//W3C//DTD SVG 1.1//EN'  'http://www.w3.org/Graphics/SVG/1.1/DTD/svg11.dtd'><svg xmlns="http://www.w3.org/2000/svg" width="168.0" height="94.0" viewBox="395.0 246.0 168.0 94.0"><rect x="395.0" y="246.0" width="168.0" height="94.0" style="fill:white;fill-opacity:0.8" /><polygon points="418.0,288.0 418.0,273.0 418.0,273.0 418.0431573277362,271.9015726598102 418.1723632316681,270.80991748943677 418.3868211144325,269.7317649060173 418.68520877186785,268.6737620787507 419.065686544842,267.64243194688873 419.52590866136285,266.64413300364635 420.0630376990427,265.68502009397673 420.6737620787507,264.77100646790535 421.35431648159954,263.90772732337746 422.1005050633883,263.1005050633883 422.9077273233774,262.3543164815996 423.77100646790535,261.6737620787507 424.68502009397673,261.0630376990427 425.64413300364635,260.52590866136285 426.64243194688873,260.065686544842 427.6737620787507,259.68520877186785 428.7317649060173,259.3868211144325 429.80991748943677,259.1723632316681 430.90157265981014,259.0431573277362 432.0,259.0 536.0,259.0 536.0,259.0 537.0984273401898,259.0431573277362 538.1900825105632,259.1723632316681 539.2682350939826,259.3868211144325 540.3262379212492,259.68520877186785 541.3575680531112,260.065686544842 542.3558669963536,260.52590866136285 543.3149799060233,261.0630376990427 544.2289935320946,261.6737620787507 545.0922726766225,262.35431648159954 545.8994949366116,263.1005050633883 546.6456835184005,263.9077273233774 547.3262379212492,264.77100646790535 547.9369623009572,265.68502009397673 548.4740913386371,266.64413300364635 548.934313455158,267.64243194688873 549.3147912281321,268.6737620787507 549.6131788855674,269.7317649060173 549.8276367683319,270.80991748943677 549.9568426722637,271.90157265981014 550.0,273.0 550.0,288.0" stroke="#000" fill="#ddd" stroke-width="3.0" fill-rule="evenodd" stroke-linejoin="round"/><polygon points="418.0,288.0 550.0,288.0 550.0,313.0 550.0,313.0 549.9568426722637,314.0984273401898 549.8276367683319,315.19008251056323 549.6131788855674,316.2682350939827 549.3147912281321,317.3262379212493 548.934313455158,318.35756805311127 548.4740913386371,319.35586699635365 547.9369623009572,320.31497990602327 547.3262379212492,321.22899353209465 546.6456835184005,322.09227267662254 545.8994949366116,322.8994949366117 545.0922726766225,323.64568351840046 544.2289935320946,324.3262379212493 543.3149799060233,324.9369623009573 542.3558669963537,325.47409133863715 541.3575680531112,325.934313455158 540.3262379212492,326.31479122813215 539.2682350939826,326.6131788855675 538.1900825105632,326.8276367683319 537.0984273401898,326.9568426722638 536.0,327.0 432.0,327.0 432.0,327.0 430.9015726598102,326.9568426722638 429.80991748943677,326.8276367683319 428.7317649060173,326.6131788855675 427.6737620787507,326.31479122813215 426.64243194688873,325.934313455158 425.64413300364635,325.47409133863715 424.68502009397673,324.9369623009573 423.77100646790535,324.3262379212493 422.90772732337746,323.64568351840046 422.1005050633883,322.8994949366117 421.35431648159954,322.0922726766226 420.6737620787507,321.22899353209465 420.0630376990427,320.31497990602327 419.52590866136285,319.35586699635365 419.065686544842,318.35756805311127 418.68520877186785,317.3262379212493 418.3868211144325,316.2682350939827 418.1723632316681,315.19008251056323 418.0431573277362,314.09842734018986 418.0,288.0" stroke="#000" fill="#fff" stroke-width="3.0" fill-rule="evenodd" stroke-linejoin="round"/><text x="484.0" y="282" fill="#000" stroke-width="0.0" text-anchor="middle" font-family="DejaVu Sans Mono" font-size="18.0pt" font-weight="bold">cancaner</text><polygon points="406.0,301.0 418.0,307.0 406.0,313.0" fill="#000" fill-rule="evenodd" stroke-linejoin="round"/><text x="420.0" y="313" fill="#000" stroke-width="0.0" font-family="DejaVu Sans Mono" font-size="12.0pt">n: </text><text x="450.0" y="313" fill="#7f0055" stroke-width="0.0" font-family="DejaVu Sans Mono" font-size="12.0pt">int</text></svg>