<?xml version="1.0" ?><!DOCTYPE svg  PUBLIC '-//W3C//DTD SVG 1.1//EN'  'http://www.w3.org/Graphics/SVG/1.1/DTD/svg11.dtd'><svg xmlns="http://www.w3.org/2000/svg" width="796.0" height="380.0" viewBox="114.0 125.0 796.0 380.0"><rect x="114.0" y="125.0" width="796.0" height="380.0" style="fill:white;fill-opacity:0.8" /><polygon points="304.0,168.0 304.0,153.0 304.0,153.0 304.0431573277362,151.90157265981017 304.1723632316681,150.80991748943677 304.3868211144325,149.73176490601733 304.68520877186785,148.67376207875074 305.065686544842,147.64243194688873 305.52590866136285,146.64413300364635 306.0630376990427,145.68502009397673 306.6737620787507,144.77100646790538 307.35431648159954,143.90772732337743 308.1005050633883,143.10050506338834 308.9077273233774,142.35431648159957 309.77100646790535,141.67376207875074 310.68502009397673,141.0630376990427 311.64413300364635,140.52590866136285 312.64243194688873,140.06568654484198 313.6737620787507,139.68520877186785 314.7317649060173,139.38682111443254 315.80991748943677,139.17236323166807 316.90157265981014,139.0431573277362 318.0,139.0 422.0,139.0 422.0,139.0 423.09842734018986,139.0431573277362 424.19008251056323,139.17236323166807 425.26823509398264,139.38682111443254 426.3262379212493,139.68520877186785 427.35756805311127,140.06568654484198 428.35586699635365,140.52590866136285 429.31497990602327,141.0630376990427 430.2289935320946,141.67376207875074 431.0922726766226,142.35431648159957 431.8994949366117,143.10050506338834 432.6456835184004,143.90772732337743 433.3262379212493,144.77100646790538 433.9369623009573,145.68502009397673 434.47409133863715,146.64413300364635 434.934313455158,147.64243194688873 435.31479122813215,148.67376207875074 435.6131788855675,149.73176490601733 435.8276367683319,150.80991748943677 435.9568426722638,151.90157265981017 436.0,153.0 436.0,168.0" stroke="#000" fill="#ddd" stroke-width="3.0" fill-rule="evenodd" stroke-linejoin="round"/><polygon points="304.0,168.0 436.0,168.0 436.0,212.0 436.0,212.0 435.9568426722638,213.09842734018983 435.8276367683319,214.19008251056323 435.6131788855675,215.26823509398267 435.31479122813215,216.32623792124926 434.934313455158,217.35756805311127 434.47409133863715,218.35586699635365 433.9369623009573,219.3149799060233 433.3262379212493,220.22899353209462 432.64568351840046,221.09227267662257 431.8994949366117,221.89949493661166 431.0922726766226,222.64568351840043 430.22899353209465,223.32623792124926 429.31497990602327,223.9369623009573 428.35586699635365,224.47409133863715 427.35756805311127,224.93431345515802 426.3262379212493,225.31479122813215 425.2682350939827,225.61317888556746 424.19008251056323,225.82763676833193 423.09842734018986,225.9568426722638 422.0,226.0 318.0,226.0 318.0,226.0 316.9015726598102,225.9568426722638 315.80991748943677,225.82763676833193 314.7317649060173,225.61317888556746 313.6737620787507,225.31479122813215 312.64243194688873,224.93431345515802 311.64413300364635,224.47409133863715 310.68502009397673,223.9369623009573 309.77100646790535,223.32623792124926 308.90772732337746,222.64568351840043 308.1005050633883,221.89949493661166 307.35431648159954,221.09227267662257 306.6737620787507,220.22899353209462 306.0630376990427,219.3149799060233 305.52590866136285,218.35586699635365 305.065686544842,217.35756805311127 304.68520877186785,216.32623792124926 304.3868211144325,215.26823509398267 304.1723632316681,214.19008251056323 304.0431573277362,213.09842734018983 304.0,168.0" stroke="#000" fill="#fff" stroke-width="3.0" fill-rule="evenodd" stroke-linejoin="round"/><text x="370.0" y="162" fill="#000" stroke-width="0.0" text-anchor="middle" font-family="DejaVu Sans Mono" font-size="18.0pt" font-weight="bold">cancaner</text><polygon points="305.0,302.0 305.0,287.0 305.0,287.0 305.0431573277362,285.9015726598102 305.1723632316681,284.80991748943677 305.3868211144325,283.7317649060173 305.68520877186785,282.6737620787507 306.065686544842,281.64243194688873 306.52590866136285,280.64413300364635 307.0630376990427,279.68502009397673 307.6737620787507,278.77100646790535 308.35431648159954,277.90772732337746 309.1005050633883,277.1005050633883 309.9077273233774,276.3543164815996 310.77100646790535,275.6737620787507 311.68502009397673,275.0630376990427 312.64413300364635,274.52590866136285 313.64243194688873,274.065686544842 314.6737620787507,273.68520877186785 315.7317649060173,273.3868211144325 316.80991748943677,273.1723632316681 317.90157265981014,273.0431573277362 319.0,273.0 423.0,273.0 423.0,273.0 424.09842734018986,273.0431573277362 425.19008251056323,273.1723632316681 426.26823509398264,273.3868211144325 427.3262379212493,273.68520877186785 428.35756805311127,274.065686544842 429.35586699635365,274.52590866136285 430.31497990602327,275.0630376990427 431.2289935320946,275.6737620787507 432.0922726766226,276.35431648159954 432.8994949366117,277.1005050633883 433.6456835184004,277.9077273233774 434.3262379212493,278.77100646790535 434.9369623009573,279.68502009397673 435.47409133863715,280.64413300364635 435.934313455158,281.64243194688873 436.31479122813215,282.6737620787507 436.6131788855675,283.7317649060173 436.8276367683319,284.80991748943677 436.9568426722638,285.90157265981014 437.0,287.0 437.0,302.0" stroke="#000" fill="#ddd" stroke-width="3.0" fill-rule="evenodd" stroke-linejoin="round"/><polygon points="305.0,302.0 437.0,302.0 437.0,346.0 437.0,346.0 436.9568426722638,347.0984273401898 436.8276367683319,348.19008251056323 436.6131788855675,349.2682350939827 436.31479122813215,350.3262379212493 435.934313455158,351.35756805311127 435.47409133863715,352.35586699635365 434.9369623009573,353.31497990602327 434.3262379212493,354.22899353209465 433.64568351840046,355.09227267662254 432.8994949366117,355.8994949366117 432.0922726766226,356.64568351840046 431.22899353209465,357.3262379212493 430.31497990602327,357.9369623009573 429.35586699635365,358.47409133863715 428.35756805311127,358.934313455158 427.3262379212493,359.31479122813215 426.2682350939827,359.6131788855675 425.19008251056323,359.8276367683319 424.09842734018986,359.9568426722638 423.0,360.0 319.0,360.0 319.0,360.0 317.9015726598102,359.9568426722638 316.80991748943677,359.8276367683319 315.7317649060173,359.6131788855675 314.6737620787507,359.31479122813215 313.64243194688873,358.934313455158 312.64413300364635,358.47409133863715 311.68502009397673,357.9369623009573 310.77100646790535,357.3262379212493 309.90772732337746,356.64568351840046 309.1005050633883,355.8994949366117 308.35431648159954,355.0922726766226 307.6737620787507,354.22899353209465 307.0630376990427,353.31497990602327 306.52590866136285,352.35586699635365 306.065686544842,351.35756805311127 305.68520877186785,350.3262379212493 305.3868211144325,349.2682350939827 305.1723632316681,348.19008251056323 305.0431573277362,347.09842734018986 305.0,302.0" stroke="#000" fill="#fff" stroke-width="3.0" fill-rule="evenodd" stroke-linejoin="round"/><text x="371.0" y="296" fill="#000" stroke-width="0.0" text-anchor="middle" font-family="DejaVu Sans Mono" font-size="18.0pt" font-weight="bold">cancaner</text><polygon points="305.0,434.0 305.0,419.0 305.0,419.0 305.0431573277362,417.9015726598102 305.1723632316681,416.80991748943677 305.3868211144325,415.7317649060173 305.68520877186785,414.6737620787507 306.065686544842,413.64243194688873 306.52590866136285,412.64413300364635 307.0630376990427,411.68502009397673 307.6737620787507,410.77100646790535 308.35431648159954,409.90772732337746 309.1005050633883,409.1005050633883 309.9077273233774,408.3543164815996 310.77100646790535,407.6737620787507 311.68502009397673,407.0630376990427 312.64413300364635,406.52590866136285 313.64243194688873,406.065686544842 314.6737620787507,405.68520877186785 315.7317649060173,405.3868211144325 316.80991748943677,405.1723632316681 317.90157265981014,405.0431573277362 319.0,405.0 423.0,405.0 423.0,405.0 424.09842734018986,405.0431573277362 425.19008251056323,405.1723632316681 426.26823509398264,405.3868211144325 427.3262379212493,405.68520877186785 428.35756805311127,406.065686544842 429.35586699635365,406.52590866136285 430.31497990602327,407.0630376990427 431.2289935320946,407.6737620787507 432.0922726766226,408.35431648159954 432.8994949366117,409.1005050633883 433.6456835184004,409.9077273233774 434.3262379212493,410.77100646790535 434.9369623009573,411.68502009397673 435.47409133863715,412.64413300364635 435.934313455158,413.64243194688873 436.31479122813215,414.6737620787507 436.6131788855675,415.7317649060173 436.8276367683319,416.80991748943677 436.9568426722638,417.90157265981014 437.0,419.0 437.0,434.0" stroke="#000" fill="#ddd" stroke-width="3.0" fill-rule="evenodd" stroke-linejoin="round"/><polygon points="305.0,434.0 437.0,434.0 437.0,478.0 437.0,478.0 436.9568426722638,479.0984273401898 436.8276367683319,480.19008251056323 436.6131788855675,481.2682350939827 436.31479122813215,482.3262379212493 435.934313455158,483.35756805311127 435.47409133863715,484.35586699635365 434.9369623009573,485.31497990602327 434.3262379212493,486.22899353209465 433.64568351840046,487.09227267662254 432.8994949366117,487.8994949366117 432.0922726766226,488.64568351840046 431.22899353209465,489.3262379212493 430.31497990602327,489.9369623009573 429.35586699635365,490.47409133863715 428.35756805311127,490.934313455158 427.3262379212493,491.31479122813215 426.2682350939827,491.6131788855675 425.19008251056323,491.8276367683319 424.09842734018986,491.9568426722638 423.0,492.0 319.0,492.0 319.0,492.0 317.9015726598102,491.9568426722638 316.80991748943677,491.8276367683319 315.7317649060173,491.6131788855675 314.6737620787507,491.31479122813215 313.64243194688873,490.934313455158 312.64413300364635,490.47409133863715 311.68502009397673,489.9369623009573 310.77100646790535,489.3262379212493 309.90772732337746,488.64568351840046 309.1005050633883,487.8994949366117 308.35431648159954,487.0922726766226 307.6737620787507,486.22899353209465 307.0630376990427,485.31497990602327 306.52590866136285,484.35586699635365 306.065686544842,483.35756805311127 305.68520877186785,482.3262379212493 305.3868211144325,481.2682350939827 305.1723632316681,480.19008251056323 305.0431573277362,479.09842734018986 305.0,434.0" stroke="#000" fill="#fff" stroke-width="3.0" fill-rule="evenodd" stroke-linejoin="round"/><text x="371.0" y="428" fill="#000" stroke-width="0.0" text-anchor="middle" font-family="DejaVu Sans Mono" font-size="18.0pt" font-weight="bold">cancaner</text><polygon points="660.0,178.0 660.0,163.0 660.0,163.0 660.0431573277363,161.90157265981017 660.1723632316681,160.80991748943677 660.3868211144326,159.73176490601733 660.6852087718678,158.67376207875074 661.065686544842,157.64243194688873 661.5259086613629,156.64413300364635 662.0630376990428,155.68502009397673 662.6737620787508,154.77100646790538 663.3543164815995,153.90772732337743 664.1005050633884,153.10050506338834 664.9077273233775,152.35431648159957 665.7710064679054,151.67376207875074 666.6850200939767,151.0630376990427 667.6441330036463,150.52590866136285 668.6424319468888,150.06568654484198 669.6737620787508,149.68520877186785 670.7317649060174,149.38682111443254 671.8099174894368,149.17236323166807 672.9015726598102,149.0431573277362 674.0,149.0 716.0,149.0 716.0,149.0 717.0984273401898,149.0431573277362 718.1900825105632,149.17236323166807 719.2682350939826,149.38682111443254 720.3262379212492,149.68520877186785 721.3575680531112,150.06568654484198 722.3558669963536,150.52590866136285 723.3149799060233,151.0630376990427 724.2289935320946,151.67376207875074 725.0922726766225,152.35431648159957 725.8994949366116,153.10050506338834 726.6456835184005,153.90772732337743 727.3262379212492,154.77100646790538 727.9369623009572,155.68502009397673 728.4740913386371,156.64413300364635 728.934313455158,157.64243194688873 729.3147912281321,158.67376207875074 729.6131788855674,159.73176490601733 729.8276367683319,160.80991748943677 729.9568426722637,161.90157265981017 730.0,163.0 730.0,178.0" stroke="#000" fill="#ddd" stroke-width="3.0" fill-rule="evenodd" stroke-linejoin="round"/><polygon points="660.0,178.0 730.0,178.0 730.0,203.0 730.0,203.0 729.9568426722637,204.09842734018983 729.8276367683319,205.19008251056323 729.6131788855674,206.26823509398267 729.3147912281321,207.32623792124926 728.934313455158,208.35756805311127 728.4740913386371,209.35586699635365 727.9369623009572,210.3149799060233 727.3262379212492,211.22899353209462 726.6456835184005,212.09227267662257 725.8994949366116,212.89949493661166 725.0922726766225,213.64568351840043 724.2289935320946,214.32623792124926 723.3149799060233,214.9369623009573 722.3558669963537,215.47409133863715 721.3575680531112,215.93431345515802 720.3262379212492,216.31479122813215 719.2682350939826,216.61317888556746 718.1900825105632,216.82763676833193 717.0984273401898,216.9568426722638 716.0,217.0 674.0,217.0 674.0,217.0 672.9015726598102,216.9568426722638 671.8099174894368,216.82763676833193 670.7317649060174,216.61317888556746 669.6737620787508,216.31479122813215 668.6424319468888,215.93431345515802 667.6441330036464,215.47409133863715 666.6850200939767,214.9369623009573 665.7710064679054,214.32623792124926 664.9077273233775,213.64568351840043 664.1005050633884,212.89949493661166 663.3543164815995,212.09227267662257 662.6737620787508,211.22899353209462 662.0630376990428,210.3149799060233 661.5259086613629,209.35586699635365 661.065686544842,208.35756805311127 660.6852087718679,207.32623792124926 660.3868211144326,206.26823509398267 660.1723632316681,205.19008251056323 660.0431573277363,204.09842734018983 660.0,178.0" stroke="#000" fill="#fff" stroke-width="3.0" fill-rule="evenodd" stroke-linejoin="round"/><text x="695.0" y="172" fill="#000" stroke-width="0.0" text-anchor="middle" font-family="DejaVu Sans Mono" font-size="18.0pt" font-weight="bold">len</text><polygon points="660.0,312.0 660.0,297.0 660.0,297.0 660.0431573277363,295.9015726598102 660.1723632316681,294.80991748943677 660.3868211144326,293.7317649060173 660.6852087718678,292.6737620787507 661.065686544842,291.64243194688873 661.5259086613629,290.64413300364635 662.0630376990428,289.68502009397673 662.6737620787508,288.77100646790535 663.3543164815995,287.90772732337746 664.1005050633884,287.1005050633883 664.9077273233775,286.3543164815996 665.7710064679054,285.6737620787507 666.6850200939767,285.0630376990427 667.6441330036463,284.52590866136285 668.6424319468888,284.065686544842 669.6737620787508,283.68520877186785 670.7317649060174,283.3868211144325 671.8099174894368,283.1723632316681 672.9015726598102,283.0431573277362 674.0,283.0 716.0,283.0 716.0,283.0 717.0984273401898,283.0431573277362 718.1900825105632,283.1723632316681 719.2682350939826,283.3868211144325 720.3262379212492,283.68520877186785 721.3575680531112,284.065686544842 722.3558669963536,284.52590866136285 723.3149799060233,285.0630376990427 724.2289935320946,285.6737620787507 725.0922726766225,286.35431648159954 725.8994949366116,287.1005050633883 726.6456835184005,287.9077273233774 727.3262379212492,288.77100646790535 727.9369623009572,289.68502009397673 728.4740913386371,290.64413300364635 728.934313455158,291.64243194688873 729.3147912281321,292.6737620787507 729.6131788855674,293.7317649060173 729.8276367683319,294.80991748943677 729.9568426722637,295.90157265981014 730.0,297.0 730.0,312.0" stroke="#000" fill="#ddd" stroke-width="3.0" fill-rule="evenodd" stroke-linejoin="round"/><polygon points="660.0,312.0 730.0,312.0 730.0,337.0 730.0,337.0 729.9568426722637,338.0984273401898 729.8276367683319,339.19008251056323 729.6131788855674,340.2682350939827 729.3147912281321,341.3262379212493 728.934313455158,342.35756805311127 728.4740913386371,343.35586699635365 727.9369623009572,344.31497990602327 727.3262379212492,345.22899353209465 726.6456835184005,346.09227267662254 725.8994949366116,346.8994949366117 725.0922726766225,347.64568351840046 724.2289935320946,348.3262379212493 723.3149799060233,348.9369623009573 722.3558669963537,349.47409133863715 721.3575680531112,349.934313455158 720.3262379212492,350.31479122813215 719.2682350939826,350.6131788855675 718.1900825105632,350.8276367683319 717.0984273401898,350.9568426722638 716.0,351.0 674.0,351.0 674.0,351.0 672.9015726598102,350.9568426722638 671.8099174894368,350.8276367683319 670.7317649060174,350.6131788855675 669.6737620787508,350.31479122813215 668.6424319468888,349.934313455158 667.6441330036464,349.47409133863715 666.6850200939767,348.9369623009573 665.7710064679054,348.3262379212493 664.9077273233775,347.64568351840046 664.1005050633884,346.8994949366117 663.3543164815995,346.0922726766226 662.6737620787508,345.22899353209465 662.0630376990428,344.31497990602327 661.5259086613629,343.35586699635365 661.065686544842,342.35756805311127 660.6852087718679,341.3262379212493 660.3868211144326,340.2682350939827 660.1723632316681,339.19008251056323 660.0431573277363,338.09842734018986 660.0,312.0" stroke="#000" fill="#fff" stroke-width="3.0" fill-rule="evenodd" stroke-linejoin="round"/><text x="695.0" y="306" fill="#000" stroke-width="0.0" text-anchor="middle" font-family="DejaVu Sans Mono" font-size="18.0pt" font-weight="bold">len</text><polygon points="660.0,444.0 660.0,429.0 660.0,429.0 660.0431573277363,427.9015726598102 660.1723632316681,426.80991748943677 660.3868211144326,425.7317649060173 660.6852087718678,424.6737620787507 661.065686544842,423.64243194688873 661.5259086613629,422.64413300364635 662.0630376990428,421.68502009397673 662.6737620787508,420.77100646790535 663.3543164815995,419.90772732337746 664.1005050633884,419.1005050633883 664.9077273233775,418.3543164815996 665.7710064679054,417.6737620787507 666.6850200939767,417.0630376990427 667.6441330036463,416.52590866136285 668.6424319468888,416.065686544842 669.6737620787508,415.68520877186785 670.7317649060174,415.3868211144325 671.8099174894368,415.1723632316681 672.9015726598102,415.0431573277362 674.0,415.0 716.0,415.0 716.0,415.0 717.0984273401898,415.0431573277362 718.1900825105632,415.1723632316681 719.2682350939826,415.3868211144325 720.3262379212492,415.68520877186785 721.3575680531112,416.065686544842 722.3558669963536,416.52590866136285 723.3149799060233,417.0630376990427 724.2289935320946,417.6737620787507 725.0922726766225,418.35431648159954 725.8994949366116,419.1005050633883 726.6456835184005,419.9077273233774 727.3262379212492,420.77100646790535 727.9369623009572,421.68502009397673 728.4740913386371,422.64413300364635 728.934313455158,423.64243194688873 729.3147912281321,424.6737620787507 729.6131788855674,425.7317649060173 729.8276367683319,426.80991748943677 729.9568426722637,427.90157265981014 730.0,429.0 730.0,444.0" stroke="#000" fill="#ddd" stroke-width="3.0" fill-rule="evenodd" stroke-linejoin="round"/><polygon points="660.0,444.0 730.0,444.0 730.0,469.0 730.0,469.0 729.9568426722637,470.0984273401898 729.8276367683319,471.19008251056323 729.6131788855674,472.2682350939827 729.3147912281321,473.3262379212493 728.934313455158,474.35756805311127 728.4740913386371,475.35586699635365 727.9369623009572,476.31497990602327 727.3262379212492,477.22899353209465 726.6456835184005,478.09227267662254 725.8994949366116,478.8994949366117 725.0922726766225,479.64568351840046 724.2289935320946,480.3262379212493 723.3149799060233,480.9369623009573 722.3558669963537,481.47409133863715 721.3575680531112,481.934313455158 720.3262379212492,482.31479122813215 719.2682350939826,482.6131788855675 718.1900825105632,482.8276367683319 717.0984273401898,482.9568426722638 716.0,483.0 674.0,483.0 674.0,483.0 672.9015726598102,482.9568426722638 671.8099174894368,482.8276367683319 670.7317649060174,482.6131788855675 669.6737620787508,482.31479122813215 668.6424319468888,481.934313455158 667.6441330036464,481.47409133863715 666.6850200939767,480.9369623009573 665.7710064679054,480.3262379212493 664.9077273233775,479.64568351840046 664.1005050633884,478.8994949366117 663.3543164815995,478.0922726766226 662.6737620787508,477.22899353209465 662.0630376990428,476.31497990602327 661.5259086613629,475.35586699635365 661.065686544842,474.35756805311127 660.6852087718679,473.3262379212493 660.3868211144326,472.2682350939827 660.1723632316681,471.19008251056323 660.0431573277363,470.09842734018986 660.0,444.0" stroke="#000" fill="#fff" stroke-width="3.0" fill-rule="evenodd" stroke-linejoin="round"/><text x="695.0" y="438" fill="#000" stroke-width="0.0" text-anchor="middle" font-family="DejaVu Sans Mono" font-size="18.0pt" font-weight="bold">len</text><polygon points="826.0,293.0 826.0,278.0 826.0,278.0 826.0431573277363,276.9015726598102 826.1723632316681,275.80991748943677 826.3868211144326,274.7317649060173 826.6852087718678,273.6737620787507 827.065686544842,272.64243194688873 827.5259086613629,271.64413300364635 828.0630376990428,270.68502009397673 828.6737620787508,269.77100646790535 829.3543164815995,268.90772732337746 830.1005050633884,268.1005050633883 830.9077273233775,267.3543164815996 831.7710064679054,266.6737620787507 832.6850200939767,266.0630376990427 833.6441330036463,265.52590866136285 834.6424319468888,265.065686544842 835.6737620787508,264.68520877186785 836.7317649060174,264.3868211144325 837.8099174894368,264.1723632316681 838.9015726598102,264.0431573277362 840.0,264.0 882.0,264.0 882.0,264.0 883.0984273401898,264.0431573277362 884.1900825105632,264.1723632316681 885.2682350939826,264.3868211144325 886.3262379212492,264.68520877186785 887.3575680531112,265.065686544842 888.3558669963536,265.52590866136285 889.3149799060233,266.0630376990427 890.2289935320946,266.6737620787507 891.0922726766225,267.35431648159954 891.8994949366116,268.1005050633883 892.6456835184005,268.9077273233774 893.3262379212492,269.77100646790535 893.9369623009572,270.68502009397673 894.4740913386371,271.64413300364635 894.934313455158,272.64243194688873 895.3147912281321,273.6737620787507 895.6131788855674,274.7317649060173 895.8276367683319,275.80991748943677 895.9568426722637,276.90157265981014 896.0,278.0 896.0,293.0" stroke="#000" fill="#ddd" stroke-width="3.0" fill-rule="evenodd" stroke-linejoin="round"/><polygon points="826.0,293.0 896.0,293.0 896.0,356.0 896.0,356.0 895.9568426722637,357.0984273401898 895.8276367683319,358.19008251056323 895.6131788855674,359.2682350939827 895.3147912281321,360.3262379212493 894.934313455158,361.35756805311127 894.4740913386371,362.35586699635365 893.9369623009572,363.31497990602327 893.3262379212492,364.22899353209465 892.6456835184005,365.09227267662254 891.8994949366116,365.8994949366117 891.0922726766225,366.64568351840046 890.2289935320946,367.3262379212493 889.3149799060233,367.9369623009573 888.3558669963537,368.47409133863715 887.3575680531112,368.934313455158 886.3262379212492,369.31479122813215 885.2682350939826,369.6131788855675 884.1900825105632,369.8276367683319 883.0984273401898,369.9568426722638 882.0,370.0 840.0,370.0 840.0,370.0 838.9015726598102,369.9568426722638 837.8099174894368,369.8276367683319 836.7317649060174,369.6131788855675 835.6737620787508,369.31479122813215 834.6424319468888,368.934313455158 833.6441330036464,368.47409133863715 832.6850200939767,367.9369623009573 831.7710064679054,367.3262379212493 830.9077273233775,366.64568351840046 830.1005050633884,365.8994949366117 829.3543164815995,365.0922726766226 828.6737620787508,364.22899353209465 828.0630376990428,363.31497990602327 827.5259086613629,362.35586699635365 827.065686544842,361.35756805311127 826.6852087718679,360.3262379212493 826.3868211144326,359.2682350939827 826.1723632316681,358.19008251056323 826.0431573277363,357.09842734018986 826.0,293.0" stroke="#000" fill="#fff" stroke-width="3.0" fill-rule="evenodd" stroke-linejoin="round"/><text x="861.0" y="287" fill="#000" stroke-width="0.0" text-anchor="middle" font-family="DejaVu Sans Mono" font-size="18.0pt" font-weight="bold">+</text><polygon points="292.0,181.0 304.0,187.0 292.0,193.0" fill="#000" fill-rule="evenodd" stroke-linejoin="round"/><text x="306.0" y="193" fill="#000" stroke-width="0.0" font-family="DejaVu Sans Mono" font-size="12.0pt">n: </text><text x="336.0" y="193" fill="#7f0055" stroke-width="0.0" font-family="DejaVu Sans Mono" font-size="12.0pt">int</text><polygon points="292.0,200.0 304.0,206.0 292.0,212.0" fill="#000" fill-rule="evenodd" stroke-linejoin="round"/><text x="306.0" y="212" fill="#000" stroke-width="0.0" font-family="DejaVu Sans Mono" font-size="12.0pt">cri: </text><text x="356.0" y="212" fill="#7f0055" stroke-width="0.0" font-family="DejaVu Sans Mono" font-size="12.0pt">str</text><polygon points="424.0,191.0 436.0,197.0 424.0,203.0" fill="#000" fill-rule="evenodd" stroke-linejoin="round"/><text x="439.0" y="193" fill="#000" stroke-width="0.0" font-family="DejaVu Sans Mono" font-size="12.0pt"></text><text x="439.0" y="193" fill="#7f0055" stroke-width="0.0" font-family="DejaVu Sans Mono" font-size="12.0pt">str</text><polygon points="293.0,315.0 305.0,321.0 293.0,327.0" fill="#000" fill-rule="evenodd" stroke-linejoin="round"/><text x="307.0" y="327" fill="#000" stroke-width="0.0" font-family="DejaVu Sans Mono" font-size="12.0pt">n: </text><text x="337.0" y="327" fill="#7f0055" stroke-width="0.0" font-family="DejaVu Sans Mono" font-size="12.0pt">int</text><polygon points="293.0,334.0 305.0,340.0 293.0,346.0" fill="#000" fill-rule="evenodd" stroke-linejoin="round"/><text x="307.0" y="346" fill="#000" stroke-width="0.0" font-family="DejaVu Sans Mono" font-size="12.0pt">cri: </text><text x="357.0" y="346" fill="#7f0055" stroke-width="0.0" font-family="DejaVu Sans Mono" font-size="12.0pt">str</text><polygon points="425.0,325.0 437.0,331.0 425.0,337.0" fill="#000" fill-rule="evenodd" stroke-linejoin="round"/><text x="440.0" y="327" fill="#000" stroke-width="0.0" font-family="DejaVu Sans Mono" font-size="12.0pt"></text><text x="440.0" y="327" fill="#7f0055" stroke-width="0.0" font-family="DejaVu Sans Mono" font-size="12.0pt">str</text><polygon points="293.0,447.0 305.0,453.0 293.0,459.0" fill="#000" fill-rule="evenodd" stroke-linejoin="round"/><text x="307.0" y="459" fill="#000" stroke-width="0.0" font-family="DejaVu Sans Mono" font-size="12.0pt">n: </text><text x="337.0" y="459" fill="#7f0055" stroke-width="0.0" font-family="DejaVu Sans Mono" font-size="12.0pt">int</text><polygon points="293.0,466.0 305.0,472.0 293.0,478.0" fill="#000" fill-rule="evenodd" stroke-linejoin="round"/><text x="307.0" y="478" fill="#000" stroke-width="0.0" font-family="DejaVu Sans Mono" font-size="12.0pt">cri: </text><text x="357.0" y="478" fill="#7f0055" stroke-width="0.0" font-family="DejaVu Sans Mono" font-size="12.0pt">str</text><polygon points="425.0,457.0 437.0,463.0 425.0,469.0" fill="#000" fill-rule="evenodd" stroke-linejoin="round"/><text x="440.0" y="459" fill="#000" stroke-width="0.0" font-family="DejaVu Sans Mono" font-size="12.0pt"></text><text x="440.0" y="459" fill="#7f0055" stroke-width="0.0" font-family="DejaVu Sans Mono" font-size="12.0pt">str</text><polygon points="648.0,191.0 660.0,197.0 648.0,203.0" fill="#000" fill-rule="evenodd" stroke-linejoin="round"/><text x="662.0" y="203" fill="#000" stroke-width="0.0" font-family="DejaVu Sans Mono" font-size="12.0pt">obj</text><polygon points="718.0,191.0 730.0,197.0 718.0,203.0" fill="#000" fill-rule="evenodd" stroke-linejoin="round"/><text x="733.0" y="193" fill="#000" stroke-width="0.0" font-family="DejaVu Sans Mono" font-size="12.0pt"></text><polygon points="648.0,325.0 660.0,331.0 648.0,337.0" fill="#000" fill-rule="evenodd" stroke-linejoin="round"/><text x="662.0" y="337" fill="#000" stroke-width="0.0" font-family="DejaVu Sans Mono" font-size="12.0pt">obj</text><polygon points="718.0,325.0 730.0,331.0 718.0,337.0" fill="#000" fill-rule="evenodd" stroke-linejoin="round"/><text x="733.0" y="327" fill="#000" stroke-width="0.0" font-family="DejaVu Sans Mono" font-size="12.0pt"></text><polygon points="648.0,457.0 660.0,463.0 648.0,469.0" fill="#000" fill-rule="evenodd" stroke-linejoin="round"/><text x="662.0" y="469" fill="#000" stroke-width="0.0" font-family="DejaVu Sans Mono" font-size="12.0pt">obj</text><polygon points="718.0,457.0 730.0,463.0 718.0,469.0" fill="#000" fill-rule="evenodd" stroke-linejoin="round"/><text x="733.0" y="459" fill="#000" stroke-width="0.0" font-family="DejaVu Sans Mono" font-size="12.0pt"></text><polygon points="884.0,325.0 896.0,331.0 884.0,337.0" fill="#000" fill-rule="evenodd" stroke-linejoin="round"/><text x="899.0" y="327" fill="#000" stroke-width="0.0" font-family="DejaVu Sans Mono" font-size="12.0pt"></text><circle cx="560.0" cy="197.0" r="6.0" stroke="#000" fill="#000"/><text x="490.0" y="183" fill="#000" stroke-width="0.0" font-family="DejaVu Sans Mono" font-size="12.0pt">chant1: </text><text x="570.0" y="183" fill="#7f0055" stroke-width="0.0" font-family="DejaVu Sans Mono" font-size="12.0pt">str</text><circle cx="204.0" cy="164.0" r="6.0" stroke="#000" fill="#000"/><text x="184.0" y="150" fill="#000" stroke-width="0.0" font-family="DejaVu Sans Mono" font-size="12.0pt">4: </text><text x="214.0" y="150" fill="#7f0055" stroke-width="0.0" font-family="DejaVu Sans Mono" font-size="12.0pt">int</text><circle cx="204.0" cy="219.0" r="6.0" stroke="#000" fill="#000"/><text x="134.0" y="205" fill="#000" stroke-width="0.0" font-family="DejaVu Sans Mono" font-size="12.0pt">&quot;coin&quot;: </text><text x="214.0" y="205" fill="#7f0055" stroke-width="0.0" font-family="DejaVu Sans Mono" font-size="12.0pt">str</text><circle cx="205.0" cy="298.0" r="6.0" stroke="#000" fill="#000"/><text x="185.0" y="284" fill="#000" stroke-width="0.0" font-family="DejaVu Sans Mono" font-size="12.0pt">4: </text><text x="215.0" y="284" fill="#7f0055" stroke-width="0.0" font-family="DejaVu Sans Mono" font-size="12.0pt">int</text><circle cx="205.0" cy="353.0" r="6.0" stroke="#000" fill="#000"/><text x="135.0" y="339" fill="#000" stroke-width="0.0" font-family="DejaVu Sans Mono" font-size="12.0pt">&quot;quak&quot;: </text><text x="215.0" y="339" fill="#7f0055" stroke-width="0.0" font-family="DejaVu Sans Mono" font-size="12.0pt">str</text><circle cx="205.0" cy="430.0" r="6.0" stroke="#000" fill="#000"/><text x="185.0" y="416" fill="#000" stroke-width="0.0" font-family="DejaVu Sans Mono" font-size="12.0pt">4: </text><text x="215.0" y="416" fill="#7f0055" stroke-width="0.0" font-family="DejaVu Sans Mono" font-size="12.0pt">int</text><circle cx="205.0" cy="485.0" r="6.0" stroke="#000" fill="#000"/><text x="125.0" y="471" fill="#000" stroke-width="0.0" font-family="DejaVu Sans Mono" font-size="12.0pt">&quot;quack&quot;: </text><text x="215.0" y="471" fill="#7f0055" stroke-width="0.0" font-family="DejaVu Sans Mono" font-size="12.0pt">str</text><circle cx="560.0" cy="331.0" r="6.0" stroke="#000" fill="#000"/><text x="490.0" y="317" fill="#000" stroke-width="0.0" font-family="DejaVu Sans Mono" font-size="12.0pt">chant2: </text><text x="570.0" y="317" fill="#7f0055" stroke-width="0.0" font-family="DejaVu Sans Mono" font-size="12.0pt">str</text><circle cx="560.0" cy="463.0" r="6.0" stroke="#000" fill="#000"/><text x="490.0" y="449" fill="#000" stroke-width="0.0" font-family="DejaVu Sans Mono" font-size="12.0pt">chant3: </text><text x="570.0" y="449" fill="#7f0055" stroke-width="0.0" font-family="DejaVu Sans Mono" font-size="12.0pt">str</text><polygon points="814.0,306.0 826.0,312.0 814.0,318.0" fill="#000" fill-rule="evenodd" stroke-linejoin="round"/><text x="828.0" y="318" fill="#000" stroke-width="0.0" font-family="DejaVu Sans Mono" font-size="12.0pt"> </text><polygon points="814.0,325.0 826.0,331.0 814.0,337.0" fill="#000" fill-rule="evenodd" stroke-linejoin="round"/><text x="828.0" y="337" fill="#000" stroke-width="0.0" font-family="DejaVu Sans Mono" font-size="12.0pt">  </text><polygon points="814.0,344.0 826.0,350.0 814.0,356.0" fill="#000" fill-rule="evenodd" stroke-linejoin="round"/><text x="828.0" y="356" fill="#000" stroke-width="0.0" font-family="DejaVu Sans Mono" font-size="12.0pt">   </text><path d="M304.0,187.0 Q279.0,187.0 266.5,181.0 T241.5,169.5 T204.0,164.0" stroke="#000" fill="none"/><path d="M304.0,206.0 Q279.0,206.0 266.5,209.0 T241.5,215.5 T204.0,219.0" stroke="#000" fill="none"/><path d="M436.0,197.0 Q467.0,197.0 482.5,197.0 T513.5,197.0 T560.0,197.0" stroke="#000" fill="none"/><path d="M305.0,321.0 Q280.0,321.0 267.5,315.0 T242.5,303.5 T205.0,298.0" stroke="#000" fill="none"/><path d="M305.0,340.0 Q280.0,340.0 267.5,343.0 T242.5,349.5 T205.0,353.0" stroke="#000" fill="none"/><path d="M437.0,331.0 Q467.0,331.0 482.5,331.0 T513.5,331.0 T560.0,331.0" stroke="#000" fill="none"/><path d="M305.0,453.0 Q280.0,453.0 267.5,447.0 T242.5,435.5 T205.0,430.0" stroke="#000" fill="none"/><path d="M305.0,472.0 Q280.0,472.0 267.5,475.0 T242.5,481.5 T205.0,485.0" stroke="#000" fill="none"/><path d="M437.0,463.0 Q467.0,463.0 482.5,463.0 T513.5,463.0 T560.0,463.0" stroke="#000" fill="none"/><path d="M660.0,197.0 Q635.0,197.0 622.5,197.0 T597.5,197.0 T560.0,197.0" stroke="#000" fill="none"/><path d="M730.0,197.0 Q754.0,197.0 766.0,225.5 T790.0,283.0 T826.0,312.0" stroke="#000" fill="none"/><path d="M660.0,331.0 Q635.0,331.0 622.5,331.0 T597.5,331.0 T560.0,331.0" stroke="#000" fill="none"/><path d="M730.0,331.0 Q754.0,331.0 766.0,331.0 T790.0,331.0 T826.0,331.0" stroke="#000" fill="none"/><path d="M660.0,463.0 Q635.0,463.0 622.5,463.0 T597.5,463.0 T560.0,463.0" stroke="#000" fill="none"/><path d="M730.0,463.0 Q754.0,463.0 766.0,434.5 T790.0,378.0 T826.0,350.0" stroke="#000" fill="none"/></svg>