<?xml version="1.0" ?><!DOCTYPE svg  PUBLIC '-//W3C//DTD SVG 1.1//EN'  'http://www.w3.org/Graphics/SVG/1.1/DTD/svg11.dtd'><svg xmlns="http://www.w3.org/2000/svg" width="752.0" height="94.0" viewBox="386.0 346.0 752.0 94.0"><rect x="386.0" y="346.0" width="752.0" height="94.0" style="fill:white;fill-opacity:0.8" /><polygon points="573.0,388.0 573.0,373.0 573.0,373.0 573.0431573277363,371.9015726598102 573.1723632316681,370.80991748943677 573.3868211144326,369.7317649060173 573.6852087718678,368.6737620787507 574.065686544842,367.64243194688873 574.5259086613629,366.64413300364635 575.0630376990428,365.68502009397673 575.6737620787508,364.77100646790535 576.3543164815995,363.90772732337746 577.1005050633884,363.1005050633883 577.9077273233775,362.3543164815996 578.7710064679054,361.6737620787507 579.6850200939767,361.0630376990427 580.6441330036463,360.52590866136285 581.6424319468888,360.065686544842 582.6737620787508,359.68520877186785 583.7317649060174,359.3868211144325 584.8099174894368,359.1723632316681 585.9015726598102,359.0431573277362 587.0,359.0 659.0,359.0 659.0,359.0 660.0984273401898,359.0431573277362 661.1900825105632,359.1723632316681 662.2682350939826,359.3868211144325 663.3262379212492,359.68520877186785 664.3575680531112,360.065686544842 665.3558669963536,360.52590866136285 666.3149799060233,361.0630376990427 667.2289935320946,361.6737620787507 668.0922726766225,362.35431648159954 668.8994949366116,363.1005050633883 669.6456835184005,363.9077273233774 670.3262379212492,364.77100646790535 670.9369623009572,365.68502009397673 671.4740913386371,366.64413300364635 671.934313455158,367.64243194688873 672.3147912281321,368.6737620787507 672.6131788855674,369.7317649060173 672.8276367683319,370.80991748943677 672.9568426722637,371.90157265981014 673.0,373.0 673.0,388.0" stroke="#000" fill="#ddd" stroke-width="3.0" fill-rule="evenodd" stroke-linejoin="round"/><polygon points="573.0,388.0 673.0,388.0 673.0,413.0 673.0,413.0 672.9568426722637,414.0984273401898 672.8276367683319,415.19008251056323 672.6131788855674,416.2682350939827 672.3147912281321,417.3262379212493 671.934313455158,418.35756805311127 671.4740913386371,419.35586699635365 670.9369623009572,420.31497990602327 670.3262379212492,421.22899353209465 669.6456835184005,422.09227267662254 668.8994949366116,422.8994949366117 668.0922726766225,423.64568351840046 667.2289935320946,424.3262379212493 666.3149799060233,424.9369623009573 665.3558669963537,425.47409133863715 664.3575680531112,425.934313455158 663.3262379212492,426.31479122813215 662.2682350939826,426.6131788855675 661.1900825105632,426.8276367683319 660.0984273401898,426.9568426722638 659.0,427.0 587.0,427.0 587.0,427.0 585.9015726598102,426.9568426722638 584.8099174894368,426.8276367683319 583.7317649060174,426.6131788855675 582.6737620787508,426.31479122813215 581.6424319468888,425.934313455158 580.6441330036464,425.47409133863715 579.6850200939767,424.9369623009573 578.7710064679054,424.3262379212493 577.9077273233775,423.64568351840046 577.1005050633884,422.8994949366117 576.3543164815995,422.0922726766226 575.6737620787508,421.22899353209465 575.0630376990428,420.31497990602327 574.5259086613629,419.35586699635365 574.065686544842,418.35756805311127 573.6852087718679,417.3262379212493 573.3868211144326,416.2682350939827 573.1723632316681,415.19008251056323 573.0431573277363,414.09842734018986 573.0,388.0" stroke="#000" fill="#fff" stroke-width="3.0" fill-rule="evenodd" stroke-linejoin="round"/><text x="623.0" y="382" fill="#000" stroke-width="0.0" text-anchor="middle" font-family="DejaVu Sans Mono" font-size="18.0pt" font-weight="bold">bin</text><polygon points="888.0,388.0 888.0,373.0 888.0,373.0 888.0431573277363,371.9015726598102 888.1723632316681,370.80991748943677 888.3868211144326,369.7317649060173 888.6852087718678,368.6737620787507 889.065686544842,367.64243194688873 889.5259086613629,366.64413300364635 890.0630376990428,365.68502009397673 890.6737620787508,364.77100646790535 891.3543164815995,363.90772732337746 892.1005050633884,363.1005050633883 892.9077273233775,362.3543164815996 893.7710064679054,361.6737620787507 894.6850200939767,361.0630376990427 895.6441330036463,360.52590866136285 896.6424319468888,360.065686544842 897.6737620787508,359.68520877186785 898.7317649060174,359.3868211144325 899.8099174894368,359.1723632316681 900.9015726598102,359.0431573277362 902.0,359.0 944.0,359.0 944.0,359.0 945.0984273401898,359.0431573277362 946.1900825105632,359.1723632316681 947.2682350939826,359.3868211144325 948.3262379212492,359.68520877186785 949.3575680531112,360.065686544842 950.3558669963536,360.52590866136285 951.3149799060233,361.0630376990427 952.2289935320946,361.6737620787507 953.0922726766225,362.35431648159954 953.8994949366116,363.1005050633883 954.6456835184005,363.9077273233774 955.3262379212492,364.77100646790535 955.9369623009572,365.68502009397673 956.4740913386371,366.64413300364635 956.934313455158,367.64243194688873 957.3147912281321,368.6737620787507 957.6131788855674,369.7317649060173 957.8276367683319,370.80991748943677 957.9568426722637,371.90157265981014 958.0,373.0 958.0,388.0" stroke="#000" fill="#ddd" stroke-width="3.0" fill-rule="evenodd" stroke-linejoin="round"/><polygon points="888.0,388.0 958.0,388.0 958.0,413.0 958.0,413.0 957.9568426722637,414.0984273401898 957.8276367683319,415.19008251056323 957.6131788855674,416.2682350939827 957.3147912281321,417.3262379212493 956.934313455158,418.35756805311127 956.4740913386371,419.35586699635365 955.9369623009572,420.31497990602327 955.3262379212492,421.22899353209465 954.6456835184005,422.09227267662254 953.8994949366116,422.8994949366117 953.0922726766225,423.64568351840046 952.2289935320946,424.3262379212493 951.3149799060233,424.9369623009573 950.3558669963537,425.47409133863715 949.3575680531112,425.934313455158 948.3262379212492,426.31479122813215 947.2682350939826,426.6131788855675 946.1900825105632,426.8276367683319 945.0984273401898,426.9568426722638 944.0,427.0 902.0,427.0 902.0,427.0 900.9015726598102,426.9568426722638 899.8099174894368,426.8276367683319 898.7317649060174,426.6131788855675 897.6737620787508,426.31479122813215 896.6424319468888,425.934313455158 895.6441330036464,425.47409133863715 894.6850200939767,424.9369623009573 893.7710064679054,424.3262379212493 892.9077273233775,423.64568351840046 892.1005050633884,422.8994949366117 891.3543164815995,422.0922726766226 890.6737620787508,421.22899353209465 890.0630376990428,420.31497990602327 889.5259086613629,419.35586699635365 889.065686544842,418.35756805311127 888.6852087718679,417.3262379212493 888.3868211144326,416.2682350939827 888.1723632316681,415.19008251056323 888.0431573277363,414.09842734018986 888.0,388.0" stroke="#000" fill="#fff" stroke-width="3.0" fill-rule="evenodd" stroke-linejoin="round"/><text x="923.0" y="382" fill="#000" stroke-width="0.0" text-anchor="middle" font-family="DejaVu Sans Mono" font-size="18.0pt" font-weight="bold">len</text><polygon points="561.0,401.0 573.0,407.0 561.0,413.0" fill="#000" fill-rule="evenodd" stroke-linejoin="round"/><text x="575.0" y="413" fill="#000" stroke-width="0.0" font-family="DejaVu Sans Mono" font-size="12.0pt">number</text><polygon points="661.0,401.0 673.0,407.0 661.0,413.0" fill="#000" fill-rule="evenodd" stroke-linejoin="round"/><text x="676.0" y="403" fill="#000" stroke-width="0.0" font-family="DejaVu Sans Mono" font-size="12.0pt"></text><polygon points="876.0,401.0 888.0,407.0 876.0,413.0" fill="#000" fill-rule="evenodd" stroke-linejoin="round"/><text x="890.0" y="413" fill="#000" stroke-width="0.0" font-family="DejaVu Sans Mono" font-size="12.0pt">obj</text><polygon points="946.0,401.0 958.0,407.0 946.0,413.0" fill="#000" fill-rule="evenodd" stroke-linejoin="round"/><text x="961.0" y="403" fill="#000" stroke-width="0.0" font-family="DejaVu Sans Mono" font-size="12.0pt"></text><circle cx="407.0" cy="407.0" r="6.0" stroke="#000" fill="#000"/><text x="397.0" y="393" fill="#000" stroke-width="0.0" font-family="DejaVu Sans Mono" font-size="12.0pt">42</text><circle cx="780.0" cy="407.0" r="6.0" stroke="#000" fill="#000"/><text x="730.0" y="393" fill="#000" stroke-width="0.0" font-family="DejaVu Sans Mono" font-size="12.0pt">'0b101010'</text><circle cx="1121.0" cy="407.0" r="6.0" stroke="#000" fill="#000"/><text x="1116.0" y="393" fill="#000" stroke-width="0.0" font-family="DejaVu Sans Mono" font-size="12.0pt">8</text><path d="M573.0,407.0 Q531.0,407.0 510.5,407.0 T469.0,407.0 T407.0,407.0" stroke="#000" fill="none"/><path d="M673.0,407.0 Q699.0,407.0 712.5,407.0 T739.5,407.0 T780.0,407.0" stroke="#000" fill="none"/><path d="M888.0,407.0 Q861.0,407.0 847.5,407.0 T820.5,407.0 T780.0,407.0" stroke="#000" fill="none"/><path d="M958.0,407.0 Q998.0,407.0 1018.5,407.0 T1059.5,407.0 T1121.0,407.0" stroke="#000" fill="none"/></svg>