<?xml version="1.0" ?><!DOCTYPE svg  PUBLIC '-//W3C//DTD SVG 1.1//EN'  'http://www.w3.org/Graphics/SVG/1.1/DTD/svg11.dtd'><svg xmlns="http://www.w3.org/2000/svg" width="792.0" height="340.0" viewBox="358.0 223.0 792.0 340.0"><rect x="358.0" y="223.0" width="792.0" height="340.0" style="fill:white;fill-opacity:0.8" /><polygon points="588.0,265.0 588.0,250.0 588.0,250.0 588.0431573277363,248.90157265981017 588.1723632316681,247.80991748943677 588.3868211144326,246.73176490601733 588.6852087718678,245.67376207875074 589.065686544842,244.64243194688873 589.5259086613629,243.64413300364635 590.0630376990428,242.68502009397673 590.6737620787508,241.77100646790538 591.3543164815995,240.90772732337743 592.1005050633884,240.10050506338834 592.9077273233775,239.35431648159957 593.7710064679054,238.67376207875074 594.6850200939767,238.0630376990427 595.6441330036463,237.52590866136285 596.6424319468888,237.06568654484198 597.6737620787508,236.68520877186785 598.7317649060174,236.38682111443254 599.8099174894368,236.17236323166807 600.9015726598102,236.0431573277362 602.0,236.0 644.0,236.0 644.0,236.0 645.0984273401898,236.0431573277362 646.1900825105632,236.17236323166807 647.2682350939826,236.38682111443254 648.3262379212492,236.68520877186785 649.3575680531112,237.06568654484198 650.3558669963536,237.52590866136285 651.3149799060233,238.0630376990427 652.2289935320946,238.67376207875074 653.0922726766225,239.35431648159957 653.8994949366116,240.10050506338834 654.6456835184005,240.90772732337743 655.3262379212492,241.77100646790538 655.9369623009572,242.68502009397673 656.4740913386371,243.64413300364635 656.934313455158,244.64243194688873 657.3147912281321,245.67376207875074 657.6131788855674,246.73176490601733 657.8276367683319,247.80991748943677 657.9568426722637,248.90157265981017 658.0,250.0 658.0,265.0" stroke="#000" fill="#ddd" stroke-width="3.0" fill-rule="evenodd" stroke-linejoin="round"/><polygon points="588.0,265.0 658.0,265.0 658.0,290.0 658.0,290.0 657.9568426722637,291.0984273401898 657.8276367683319,292.19008251056323 657.6131788855674,293.2682350939827 657.3147912281321,294.3262379212493 656.934313455158,295.35756805311127 656.4740913386371,296.35586699635365 655.9369623009572,297.31497990602327 655.3262379212492,298.22899353209465 654.6456835184005,299.09227267662254 653.8994949366116,299.8994949366117 653.0922726766225,300.64568351840046 652.2289935320946,301.3262379212493 651.3149799060233,301.9369623009573 650.3558669963537,302.47409133863715 649.3575680531112,302.934313455158 648.3262379212492,303.31479122813215 647.2682350939826,303.6131788855675 646.1900825105632,303.8276367683319 645.0984273401898,303.9568426722638 644.0,304.0 602.0,304.0 602.0,304.0 600.9015726598102,303.9568426722638 599.8099174894368,303.8276367683319 598.7317649060174,303.6131788855675 597.6737620787508,303.31479122813215 596.6424319468888,302.934313455158 595.6441330036464,302.47409133863715 594.6850200939767,301.9369623009573 593.7710064679054,301.3262379212493 592.9077273233775,300.64568351840046 592.1005050633884,299.8994949366117 591.3543164815995,299.0922726766226 590.6737620787508,298.22899353209465 590.0630376990428,297.31497990602327 589.5259086613629,296.35586699635365 589.065686544842,295.35756805311127 588.6852087718679,294.3262379212493 588.3868211144326,293.2682350939827 588.1723632316681,292.19008251056323 588.0431573277363,291.09842734018986 588.0,265.0" stroke="#000" fill="#fff" stroke-width="3.0" fill-rule="evenodd" stroke-linejoin="round"/><text x="623.0" y="259" fill="#000" stroke-width="0.0" text-anchor="middle" font-family="DejaVu Sans Mono" font-size="18.0pt" font-weight="bold">len</text><polygon points="588.0,511.0 588.0,496.0 588.0,496.0 588.0431573277363,494.9015726598102 588.1723632316681,493.80991748943677 588.3868211144326,492.7317649060173 588.6852087718678,491.6737620787507 589.065686544842,490.64243194688873 589.5259086613629,489.64413300364635 590.0630376990428,488.68502009397673 590.6737620787508,487.77100646790535 591.3543164815995,486.90772732337746 592.1005050633884,486.1005050633883 592.9077273233775,485.3543164815996 593.7710064679054,484.6737620787507 594.6850200939767,484.0630376990427 595.6441330036463,483.52590866136285 596.6424319468888,483.065686544842 597.6737620787508,482.68520877186785 598.7317649060174,482.3868211144325 599.8099174894368,482.1723632316681 600.9015726598102,482.0431573277362 602.0,482.0 644.0,482.0 644.0,482.0 645.0984273401898,482.0431573277362 646.1900825105632,482.1723632316681 647.2682350939826,482.3868211144325 648.3262379212492,482.68520877186785 649.3575680531112,483.065686544842 650.3558669963536,483.52590866136285 651.3149799060233,484.0630376990427 652.2289935320946,484.6737620787507 653.0922726766225,485.35431648159954 653.8994949366116,486.1005050633883 654.6456835184005,486.9077273233774 655.3262379212492,487.77100646790535 655.9369623009572,488.68502009397673 656.4740913386371,489.64413300364635 656.934313455158,490.64243194688873 657.3147912281321,491.6737620787507 657.6131788855674,492.7317649060173 657.8276367683319,493.80991748943677 657.9568426722637,494.90157265981014 658.0,496.0 658.0,511.0" stroke="#000" fill="#ddd" stroke-width="3.0" fill-rule="evenodd" stroke-linejoin="round"/><polygon points="588.0,511.0 658.0,511.0 658.0,536.0 658.0,536.0 657.9568426722637,537.0984273401898 657.8276367683319,538.1900825105632 657.6131788855674,539.2682350939826 657.3147912281321,540.3262379212492 656.934313455158,541.3575680531112 656.4740913386371,542.3558669963536 655.9369623009572,543.3149799060233 655.3262379212492,544.2289935320946 654.6456835184005,545.0922726766225 653.8994949366116,545.8994949366116 653.0922726766225,546.6456835184005 652.2289935320946,547.3262379212492 651.3149799060233,547.9369623009572 650.3558669963537,548.4740913386371 649.3575680531112,548.934313455158 648.3262379212492,549.3147912281321 647.2682350939826,549.6131788855674 646.1900825105632,549.8276367683319 645.0984273401898,549.9568426722637 644.0,550.0 602.0,550.0 602.0,550.0 600.9015726598102,549.9568426722637 599.8099174894368,549.8276367683319 598.7317649060174,549.6131788855674 597.6737620787508,549.3147912281322 596.6424319468888,548.934313455158 595.6441330036464,548.4740913386371 594.6850200939767,547.9369623009572 593.7710064679054,547.3262379212492 592.9077273233775,546.6456835184005 592.1005050633884,545.8994949366116 591.3543164815995,545.0922726766225 590.6737620787508,544.2289935320946 590.0630376990428,543.3149799060233 589.5259086613629,542.3558669963537 589.065686544842,541.3575680531112 588.6852087718679,540.3262379212492 588.3868211144326,539.2682350939826 588.1723632316681,538.1900825105632 588.0431573277363,537.0984273401898 588.0,511.0" stroke="#000" fill="#fff" stroke-width="3.0" fill-rule="evenodd" stroke-linejoin="round"/><text x="623.0" y="505" fill="#000" stroke-width="0.0" text-anchor="middle" font-family="DejaVu Sans Mono" font-size="18.0pt" font-weight="bold">len</text><polygon points="873.0,378.0 873.0,363.0 873.0,363.0 873.0431573277363,361.9015726598102 873.1723632316681,360.80991748943677 873.3868211144326,359.7317649060173 873.6852087718678,358.6737620787507 874.065686544842,357.64243194688873 874.5259086613629,356.64413300364635 875.0630376990428,355.68502009397673 875.6737620787508,354.77100646790535 876.3543164815995,353.90772732337746 877.1005050633884,353.1005050633883 877.9077273233775,352.3543164815996 878.7710064679054,351.6737620787507 879.6850200939767,351.0630376990427 880.6441330036463,350.52590866136285 881.6424319468888,350.065686544842 882.6737620787508,349.68520877186785 883.7317649060174,349.3868211144325 884.8099174894368,349.1723632316681 885.9015726598102,349.0431573277362 887.0,349.0 959.0,349.0 959.0,349.0 960.0984273401898,349.0431573277362 961.1900825105632,349.1723632316681 962.2682350939826,349.3868211144325 963.3262379212492,349.68520877186785 964.3575680531112,350.065686544842 965.3558669963536,350.52590866136285 966.3149799060233,351.0630376990427 967.2289935320946,351.6737620787507 968.0922726766225,352.35431648159954 968.8994949366116,353.1005050633883 969.6456835184005,353.9077273233774 970.3262379212492,354.77100646790535 970.9369623009572,355.68502009397673 971.4740913386371,356.64413300364635 971.934313455158,357.64243194688873 972.3147912281321,358.6737620787507 972.6131788855674,359.7317649060173 972.8276367683319,360.80991748943677 972.9568426722637,361.90157265981014 973.0,363.0 973.0,378.0" stroke="#000" fill="#ddd" stroke-width="3.0" fill-rule="evenodd" stroke-linejoin="round"/><polygon points="873.0,378.0 973.0,378.0 973.0,422.0 973.0,422.0 972.9568426722637,423.0984273401898 972.8276367683319,424.19008251056323 972.6131788855674,425.2682350939827 972.3147912281321,426.3262379212493 971.934313455158,427.35756805311127 971.4740913386371,428.35586699635365 970.9369623009572,429.31497990602327 970.3262379212492,430.22899353209465 969.6456835184005,431.09227267662254 968.8994949366116,431.8994949366117 968.0922726766225,432.64568351840046 967.2289935320946,433.3262379212493 966.3149799060233,433.9369623009573 965.3558669963537,434.47409133863715 964.3575680531112,434.934313455158 963.3262379212492,435.31479122813215 962.2682350939826,435.6131788855675 961.1900825105632,435.8276367683319 960.0984273401898,435.9568426722638 959.0,436.0 887.0,436.0 887.0,436.0 885.9015726598102,435.9568426722638 884.8099174894368,435.8276367683319 883.7317649060174,435.6131788855675 882.6737620787508,435.31479122813215 881.6424319468888,434.934313455158 880.6441330036464,434.47409133863715 879.6850200939767,433.9369623009573 878.7710064679054,433.3262379212493 877.9077273233775,432.64568351840046 877.1005050633884,431.8994949366117 876.3543164815995,431.0922726766226 875.6737620787508,430.22899353209465 875.0630376990428,429.31497990602327 874.5259086613629,428.35586699635365 874.065686544842,427.35756805311127 873.6852087718679,426.3262379212493 873.3868211144326,425.2682350939827 873.1723632316681,424.19008251056323 873.0431573277363,423.09842734018986 873.0,378.0" stroke="#000" fill="#fff" stroke-width="3.0" fill-rule="evenodd" stroke-linejoin="round"/><text x="923.0" y="372" fill="#000" stroke-width="0.0" text-anchor="middle" font-family="DejaVu Sans Mono" font-size="18.0pt" font-weight="bold">+</text><polygon points="576.0,278.0 588.0,284.0 576.0,290.0" fill="#000" fill-rule="evenodd" stroke-linejoin="round"/><text x="590.0" y="290" fill="#000" stroke-width="0.0" font-family="DejaVu Sans Mono" font-size="12.0pt">obj</text><polygon points="646.0,278.0 658.0,284.0 646.0,290.0" fill="#000" fill-rule="evenodd" stroke-linejoin="round"/><text x="661.0" y="280" fill="#000" stroke-width="0.0" font-family="DejaVu Sans Mono" font-size="12.0pt"></text><polygon points="646.0,524.0 658.0,530.0 646.0,536.0" fill="#000" fill-rule="evenodd" stroke-linejoin="round"/><text x="661.0" y="526" fill="#000" stroke-width="0.0" font-family="DejaVu Sans Mono" font-size="12.0pt"></text><polygon points="861.0,391.0 873.0,397.0 861.0,403.0" fill="#000" fill-rule="evenodd" stroke-linejoin="round"/><text x="875.0" y="403" fill="#000" stroke-width="0.0" font-family="DejaVu Sans Mono" font-size="12.0pt">value1</text><polygon points="861.0,410.0 873.0,416.0 861.0,422.0" fill="#000" fill-rule="evenodd" stroke-linejoin="round"/><text x="875.0" y="422" fill="#000" stroke-width="0.0" font-family="DejaVu Sans Mono" font-size="12.0pt">value2</text><polygon points="961.0,401.0 973.0,407.0 961.0,413.0" fill="#000" fill-rule="evenodd" stroke-linejoin="round"/><text x="976.0" y="403" fill="#000" stroke-width="0.0" font-family="DejaVu Sans Mono" font-size="12.0pt"></text><polygon points="576.0,524.0 588.0,530.0 576.0,536.0" fill="#000" fill-rule="evenodd" stroke-linejoin="round"/><text x="590.0" y="536" fill="#000" stroke-width="0.0" font-family="DejaVu Sans Mono" font-size="12.0pt">obj</text><circle cx="1129.0" cy="407.0" r="6.0" stroke="#000" fill="#000"/><text x="1119.0" y="393" fill="#000" stroke-width="0.0" font-family="DejaVu Sans Mono" font-size="12.0pt">13</text><circle cx="414.0" cy="284.0" r="6.0" stroke="#000" fill="#000"/><text x="374.0" y="270" fill="#000" stroke-width="0.0" font-family="DejaVu Sans Mono" font-size="12.0pt">&quot;Coucou&quot;</text><circle cx="765.0" cy="340.5" r="6.0" stroke="#000" fill="#000"/><text x="760.0" y="327" fill="#000" stroke-width="0.0" font-family="DejaVu Sans Mono" font-size="12.0pt">6</text><circle cx="414.0" cy="530.0" r="6.0" stroke="#000" fill="#000"/><text x="369.0" y="516" fill="#000" stroke-width="0.0" font-family="DejaVu Sans Mono" font-size="12.0pt">&quot;Maurice&quot;</text><circle cx="765.0" cy="473.0" r="6.0" stroke="#000" fill="#000"/><text x="760.0" y="459" fill="#000" stroke-width="0.0" font-family="DejaVu Sans Mono" font-size="12.0pt">7</text><path d="M588.0,284.0 Q544.0,284.0 522.5,284.0 T479.0,284.0 T414.0,284.0" stroke="#000" fill="none"/><path d="M658.0,284.0 Q684.0,284.0 697.5,298.0 T724.5,326.25 T765.0,340.5" stroke="#000" fill="none"/><path d="M658.0,530.0 Q684.0,530.0 697.5,515.5 T724.5,487.0 T765.0,473.0" stroke="#000" fill="none"/><path d="M873.0,397.0 Q846.0,397.0 832.5,382.5 T805.5,354.25 T765.0,340.5" stroke="#000" fill="none"/><path d="M873.0,416.0 Q846.0,416.0 832.5,430.0 T805.5,458.5 T765.0,473.0" stroke="#000" fill="none"/><path d="M973.0,407.0 Q1012.0,407.0 1031.5,407.0 T1070.5,407.0 T1129.0,407.0" stroke="#000" fill="none"/><path d="M588.0,530.0 Q544.0,530.0 522.5,530.0 T479.0,530.0 T414.0,530.0" stroke="#000" fill="none"/></svg>