<?xml version="1.0" ?><!DOCTYPE svg  PUBLIC '-//W3C//DTD SVG 1.1//EN'  'http://www.w3.org/Graphics/SVG/1.1/DTD/svg11.dtd'><svg xmlns="http://www.w3.org/2000/svg" width="490.0" height="176.0" viewBox="483.0 192.0 490.0 176.0"><rect x="483.0" y="192.0" width="490.0" height="176.0" style="fill:white;fill-opacity:1.0" /><polygon points="580.0,253.0 580.0,238.0 580.0,238.0 580.0431573277363,236.90157265981017 580.1723632316681,235.80991748943677 580.3868211144326,234.73176490601733 580.6852087718678,233.67376207875074 581.065686544842,232.64243194688873 581.5259086613629,231.64413300364635 582.0630376990428,230.68502009397673 582.6737620787508,229.77100646790538 583.3543164815995,228.90772732337743 584.1005050633884,228.10050506338834 584.9077273233775,227.35431648159957 585.7710064679054,226.67376207875074 586.6850200939767,226.0630376990427 587.6441330036463,225.52590866136285 588.6424319468888,225.06568654484198 589.6737620787508,224.68520877186785 590.7317649060174,224.38682111443254 591.8099174894368,224.17236323166807 592.9015726598102,224.0431573277362 594.0,224.0 740.0,224.0 740.0,224.0 741.0984273401898,224.0431573277362 742.1900825105632,224.17236323166807 743.2682350939826,224.38682111443254 744.3262379212492,224.68520877186785 745.3575680531112,225.06568654484198 746.3558669963536,225.52590866136285 747.3149799060233,226.0630376990427 748.2289935320946,226.67376207875074 749.0922726766225,227.35431648159957 749.8994949366116,228.10050506338834 750.6456835184005,228.90772732337743 751.3262379212492,229.77100646790538 751.9369623009572,230.68502009397673 752.4740913386371,231.64413300364635 752.934313455158,232.64243194688873 753.3147912281321,233.67376207875074 753.6131788855674,234.73176490601733 753.8276367683319,235.80991748943677 753.9568426722637,236.90157265981017 754.0,238.0 754.0,253.0" stroke="#000" fill="#ddd" stroke-width="3.0" fill-rule="evenodd" stroke-linejoin="round"/><polygon points="580.0,253.0 754.0,253.0 754.0,316.0 754.0,316.0 753.9568426722637,317.0984273401898 753.8276367683319,318.19008251056323 753.6131788855674,319.2682350939827 753.3147912281321,320.3262379212493 752.934313455158,321.35756805311127 752.4740913386371,322.35586699635365 751.9369623009572,323.31497990602327 751.3262379212492,324.22899353209465 750.6456835184005,325.09227267662254 749.8994949366116,325.8994949366117 749.0922726766225,326.64568351840046 748.2289935320946,327.3262379212493 747.3149799060233,327.9369623009573 746.3558669963537,328.47409133863715 745.3575680531112,328.934313455158 744.3262379212492,329.31479122813215 743.2682350939826,329.6131788855675 742.1900825105632,329.8276367683319 741.0984273401898,329.9568426722638 740.0,330.0 594.0,330.0 594.0,330.0 592.9015726598102,329.9568426722638 591.8099174894368,329.8276367683319 590.7317649060174,329.6131788855675 589.6737620787508,329.31479122813215 588.6424319468888,328.934313455158 587.6441330036464,328.47409133863715 586.6850200939767,327.9369623009573 585.7710064679054,327.3262379212493 584.9077273233775,326.64568351840046 584.1005050633884,325.8994949366117 583.3543164815995,325.0922726766226 582.6737620787508,324.22899353209465 582.0630376990428,323.31497990602327 581.5259086613629,322.35586699635365 581.065686544842,321.35756805311127 580.6852087718679,320.3262379212493 580.3868211144326,319.2682350939827 580.1723632316681,318.19008251056323 580.0431573277363,317.09842734018986 580.0,253.0" stroke="#000" fill="#fff" stroke-width="3.0" fill-rule="evenodd" stroke-linejoin="round"/><text x="667.0" y="247" fill="#000" stroke-width="0.0" text-anchor="middle" font-family="DejaVu Sans Mono" font-size="18.0pt" font-weight="bold">ma_fonction</text><polygon points="568.0,266.0 580.0,272.0 568.0,278.0" fill="#000" fill-rule="evenodd" stroke-linejoin="round"/><text x="582.0" y="278" fill="#000" stroke-width="0.0" font-family="DejaVu Sans Mono" font-size="12.0pt">paramètre1</text><polygon points="568.0,285.0 580.0,291.0 568.0,297.0" fill="#000" fill-rule="evenodd" stroke-linejoin="round"/><text x="582.0" y="297" fill="#000" stroke-width="0.0" font-family="DejaVu Sans Mono" font-size="12.0pt">paramètre2</text><polygon points="568.0,304.0 580.0,310.0 568.0,316.0" fill="#000" fill-rule="evenodd" stroke-linejoin="round"/><text x="582.0" y="316" fill="#000" stroke-width="0.0" font-family="DejaVu Sans Mono" font-size="12.0pt">...</text><polygon points="742.0,285.0 754.0,291.0 742.0,297.0" fill="#000" fill-rule="evenodd" stroke-linejoin="round"/><text x="757.0" y="287" fill="#000" stroke-width="0.0" font-family="DejaVu Sans Mono" font-size="12.0pt"></text><circle cx="500.0" cy="231.0" r="6.0" stroke="#000" fill="#000"/><text x="500.0" y="217" fill="#000" stroke-width="0.0" font-family="DejaVu Sans Mono" font-size="12.0pt"> </text><circle cx="500.0" cy="291.0" r="6.0" stroke="#000" fill="#000"/><text x="500.0" y="277" fill="#000" stroke-width="0.0" font-family="DejaVu Sans Mono" font-size="12.0pt">  </text><circle cx="500.0" cy="351.0" r="6.0" stroke="#000" fill="#000"/><text x="500.0" y="337" fill="#000" stroke-width="0.0" font-family="DejaVu Sans Mono" font-size="12.0pt">   </text><circle cx="832.0" cy="291.0" r="6.0" stroke="#000" fill="#000"/><text x="832.0" y="277" fill="#000" stroke-width="0.0" font-family="DejaVu Sans Mono" font-size="12.0pt">valeur_retour</text><path d="M580.0,272.0 Q560.0,272.0 550.0,261.5 T530.0,241.0 T500.0,231.0" stroke="#000" fill="none"/><path d="M580.0,291.0 Q560.0,291.0 550.0,291.0 T530.0,291.0 T500.0,291.0" stroke="#000" fill="none"/><path d="M580.0,310.0 Q560.0,310.0 550.0,320.0 T530.0,340.5 T500.0,351.0" stroke="#000" fill="none"/><path d="M754.0,291.0 Q773.0,291.0 783.0,291.0 T802.5,291.0 T832.0,291.0" stroke="#000" fill="none"/></svg>