<?xml version="1.0" ?><!DOCTYPE svg  PUBLIC '-//W3C//DTD SVG 1.1//EN'  'http://www.w3.org/Graphics/SVG/1.1/DTD/svg11.dtd'><svg xmlns="http://www.w3.org/2000/svg" width="583.0" height="94.0" viewBox="219.0 239.0 583.0 94.0"><rect x="219.0" y="239.0" width="583.0" height="94.0" style="fill:white;fill-opacity:0.8" /><polygon points="327.0,281.0 327.0,266.0 327.0,266.0 327.0431573277362,264.9015726598102 327.1723632316681,263.80991748943677 327.3868211144325,262.7317649060173 327.68520877186785,261.6737620787507 328.065686544842,260.64243194688873 328.52590866136285,259.64413300364635 329.0630376990427,258.68502009397673 329.6737620787507,257.77100646790535 330.35431648159954,256.90772732337746 331.1005050633883,256.1005050633883 331.9077273233774,255.35431648159957 332.77100646790535,254.67376207875074 333.68502009397673,254.0630376990427 334.64413300364635,253.52590866136285 335.64243194688873,253.06568654484198 336.6737620787507,252.68520877186785 337.7317649060173,252.38682111443254 338.80991748943677,252.17236323166807 339.90157265981014,252.0431573277362 341.0,252.0 413.0,252.0 413.0,252.0 414.09842734018986,252.0431573277362 415.19008251056323,252.17236323166807 416.26823509398264,252.38682111443254 417.3262379212493,252.68520877186785 418.35756805311127,253.06568654484198 419.35586699635365,253.52590866136285 420.31497990602327,254.0630376990427 421.2289935320946,254.67376207875074 422.0922726766226,255.35431648159957 422.8994949366117,256.1005050633883 423.6456835184004,256.9077273233774 424.3262379212493,257.77100646790535 424.9369623009573,258.68502009397673 425.47409133863715,259.64413300364635 425.934313455158,260.64243194688873 426.31479122813215,261.6737620787507 426.6131788855675,262.7317649060173 426.8276367683319,263.80991748943677 426.9568426722638,264.90157265981014 427.0,266.0 427.0,281.0" stroke="#000" fill="#ddd" stroke-width="3.0" fill-rule="evenodd" stroke-linejoin="round"/><polygon points="327.0,281.0 427.0,281.0 427.0,306.0 427.0,306.0 426.9568426722638,307.0984273401898 426.8276367683319,308.19008251056323 426.6131788855675,309.2682350939827 426.31479122813215,310.3262379212493 425.934313455158,311.35756805311127 425.47409133863715,312.35586699635365 424.9369623009573,313.31497990602327 424.3262379212493,314.22899353209465 423.64568351840046,315.09227267662254 422.8994949366117,315.8994949366117 422.0922726766226,316.64568351840046 421.22899353209465,317.3262379212493 420.31497990602327,317.9369623009573 419.35586699635365,318.47409133863715 418.35756805311127,318.934313455158 417.3262379212493,319.31479122813215 416.2682350939827,319.6131788855675 415.19008251056323,319.8276367683319 414.09842734018986,319.9568426722638 413.0,320.0 341.0,320.0 341.0,320.0 339.9015726598102,319.9568426722638 338.80991748943677,319.8276367683319 337.7317649060173,319.6131788855675 336.6737620787507,319.31479122813215 335.64243194688873,318.934313455158 334.64413300364635,318.47409133863715 333.68502009397673,317.9369623009573 332.77100646790535,317.3262379212493 331.90772732337746,316.64568351840046 331.1005050633883,315.8994949366117 330.35431648159954,315.0922726766226 329.6737620787507,314.22899353209465 329.0630376990427,313.31497990602327 328.52590866136285,312.35586699635365 328.065686544842,311.35756805311127 327.68520877186785,310.3262379212493 327.3868211144325,309.2682350939827 327.1723632316681,308.19008251056323 327.0431573277362,307.09842734018986 327.0,281.0" stroke="#000" fill="#fff" stroke-width="3.0" fill-rule="evenodd" stroke-linejoin="round"/><text x="377.0" y="275" fill="#000" stroke-width="0.0" text-anchor="middle" font-family="DejaVu Sans Mono" font-size="18.0pt" font-weight="bold">bin</text><polygon points="628.0,281.0 628.0,266.0 628.0,266.0 628.0431573277363,264.9015726598102 628.1723632316681,263.80991748943677 628.3868211144326,262.7317649060173 628.6852087718678,261.6737620787507 629.065686544842,260.64243194688873 629.5259086613629,259.64413300364635 630.0630376990428,258.68502009397673 630.6737620787508,257.77100646790535 631.3543164815995,256.90772732337746 632.1005050633884,256.1005050633883 632.9077273233775,255.35431648159957 633.7710064679054,254.67376207875074 634.6850200939767,254.0630376990427 635.6441330036463,253.52590866136285 636.6424319468888,253.06568654484198 637.6737620787508,252.68520877186785 638.7317649060174,252.38682111443254 639.8099174894368,252.17236323166807 640.9015726598102,252.0431573277362 642.0,252.0 684.0,252.0 684.0,252.0 685.0984273401898,252.0431573277362 686.1900825105632,252.17236323166807 687.2682350939826,252.38682111443254 688.3262379212492,252.68520877186785 689.3575680531112,253.06568654484198 690.3558669963536,253.52590866136285 691.3149799060233,254.0630376990427 692.2289935320946,254.67376207875074 693.0922726766225,255.35431648159957 693.8994949366116,256.1005050633883 694.6456835184005,256.9077273233774 695.3262379212492,257.77100646790535 695.9369623009572,258.68502009397673 696.4740913386371,259.64413300364635 696.934313455158,260.64243194688873 697.3147912281321,261.6737620787507 697.6131788855674,262.7317649060173 697.8276367683319,263.80991748943677 697.9568426722637,264.90157265981014 698.0,266.0 698.0,281.0" stroke="#000" fill="#ddd" stroke-width="3.0" fill-rule="evenodd" stroke-linejoin="round"/><polygon points="628.0,281.0 698.0,281.0 698.0,306.0 698.0,306.0 697.9568426722637,307.0984273401898 697.8276367683319,308.19008251056323 697.6131788855674,309.2682350939827 697.3147912281321,310.3262379212493 696.934313455158,311.35756805311127 696.4740913386371,312.35586699635365 695.9369623009572,313.31497990602327 695.3262379212492,314.22899353209465 694.6456835184005,315.09227267662254 693.8994949366116,315.8994949366117 693.0922726766225,316.64568351840046 692.2289935320946,317.3262379212493 691.3149799060233,317.9369623009573 690.3558669963537,318.47409133863715 689.3575680531112,318.934313455158 688.3262379212492,319.31479122813215 687.2682350939826,319.6131788855675 686.1900825105632,319.8276367683319 685.0984273401898,319.9568426722638 684.0,320.0 642.0,320.0 642.0,320.0 640.9015726598102,319.9568426722638 639.8099174894368,319.8276367683319 638.7317649060174,319.6131788855675 637.6737620787508,319.31479122813215 636.6424319468888,318.934313455158 635.6441330036464,318.47409133863715 634.6850200939767,317.9369623009573 633.7710064679054,317.3262379212493 632.9077273233775,316.64568351840046 632.1005050633884,315.8994949366117 631.3543164815995,315.0922726766226 630.6737620787508,314.22899353209465 630.0630376990428,313.31497990602327 629.5259086613629,312.35586699635365 629.065686544842,311.35756805311127 628.6852087718679,310.3262379212493 628.3868211144326,309.2682350939827 628.1723632316681,308.19008251056323 628.0431573277363,307.09842734018986 628.0,281.0" stroke="#000" fill="#fff" stroke-width="3.0" fill-rule="evenodd" stroke-linejoin="round"/><text x="663.0" y="275" fill="#000" stroke-width="0.0" text-anchor="middle" font-family="DejaVu Sans Mono" font-size="18.0pt" font-weight="bold">len</text><polygon points="315.0,294.0 327.0,300.0 315.0,306.0" fill="#000" fill-rule="evenodd" stroke-linejoin="round"/><text x="329.0" y="306" fill="#000" stroke-width="0.0" font-family="DejaVu Sans Mono" font-size="12.0pt">number</text><polygon points="415.0,294.0 427.0,300.0 415.0,306.0" fill="#000" fill-rule="evenodd" stroke-linejoin="round"/><text x="430.0" y="296" fill="#000" stroke-width="0.0" font-family="DejaVu Sans Mono" font-size="12.0pt"></text><polygon points="616.0,294.0 628.0,300.0 616.0,306.0" fill="#000" fill-rule="evenodd" stroke-linejoin="round"/><text x="630.0" y="306" fill="#000" stroke-width="0.0" font-family="DejaVu Sans Mono" font-size="12.0pt">obj</text><polygon points="686.0,294.0 698.0,300.0 686.0,306.0" fill="#000" fill-rule="evenodd" stroke-linejoin="round"/><text x="701.0" y="296" fill="#000" stroke-width="0.0" font-family="DejaVu Sans Mono" font-size="12.0pt"></text><circle cx="240.0" cy="300.0" r="6.0" stroke="#000" fill="#000"/><text x="230.0" y="286" fill="#000" stroke-width="0.0" font-family="DejaVu Sans Mono" font-size="12.0pt">42</text><circle cx="517.0" cy="300.0" r="6.0" stroke="#000" fill="#000"/><text x="467.0" y="286" fill="#000" stroke-width="0.0" font-family="DejaVu Sans Mono" font-size="12.0pt">'0b101010'</text><circle cx="785.0" cy="300.0" r="6.0" stroke="#000" fill="#000"/><text x="780.0" y="286" fill="#000" stroke-width="0.0" font-family="DejaVu Sans Mono" font-size="12.0pt">8</text><path d="M327.0,300.0 Q305.0,300.0 294.0,300.0 T272.0,300.0 T240.0,300.0" stroke="#000" fill="none"/><path d="M427.0,300.0 Q449.0,300.0 460.5,300.0 T483.0,300.0 T517.0,300.0" stroke="#000" fill="none"/><path d="M628.0,300.0 Q600.0,300.0 586.0,300.0 T558.0,300.0 T517.0,300.0" stroke="#000" fill="none"/><path d="M698.0,300.0 Q719.0,300.0 730.0,300.0 T752.0,300.0 T785.0,300.0" stroke="#000" fill="none"/></svg>