<?xml version="1.0" ?><!DOCTYPE svg  PUBLIC '-//W3C//DTD SVG 1.1//EN'  'http://www.w3.org/Graphics/SVG/1.1/DTD/svg11.dtd'><svg xmlns="http://www.w3.org/2000/svg" width="782.0" height="260.0" viewBox="358.0 263.0 782.0 260.0"><rect x="358.0" y="263.0" width="782.0" height="260.0" style="fill:white;fill-opacity:0.8" /><polygon points="588.0,305.0 588.0,290.0 588.0,290.0 588.0431573277363,288.9015726598102 588.1723632316681,287.80991748943677 588.3868211144326,286.7317649060173 588.6852087718678,285.6737620787507 589.065686544842,284.64243194688873 589.5259086613629,283.64413300364635 590.0630376990428,282.68502009397673 590.6737620787508,281.77100646790535 591.3543164815995,280.90772732337746 592.1005050633884,280.1005050633883 592.9077273233775,279.3543164815996 593.7710064679054,278.6737620787507 594.6850200939767,278.0630376990427 595.6441330036463,277.52590866136285 596.6424319468888,277.065686544842 597.6737620787508,276.68520877186785 598.7317649060174,276.3868211144325 599.8099174894368,276.1723632316681 600.9015726598102,276.0431573277362 602.0,276.0 644.0,276.0 644.0,276.0 645.0984273401898,276.0431573277362 646.1900825105632,276.1723632316681 647.2682350939826,276.3868211144325 648.3262379212492,276.68520877186785 649.3575680531112,277.065686544842 650.3558669963536,277.52590866136285 651.3149799060233,278.0630376990427 652.2289935320946,278.6737620787507 653.0922726766225,279.35431648159954 653.8994949366116,280.1005050633883 654.6456835184005,280.9077273233774 655.3262379212492,281.77100646790535 655.9369623009572,282.68502009397673 656.4740913386371,283.64413300364635 656.934313455158,284.64243194688873 657.3147912281321,285.6737620787507 657.6131788855674,286.7317649060173 657.8276367683319,287.80991748943677 657.9568426722637,288.90157265981014 658.0,290.0 658.0,305.0" stroke="#000" fill="#ddd" stroke-width="3.0" fill-rule="evenodd" stroke-linejoin="round"/><polygon points="588.0,305.0 658.0,305.0 658.0,330.0 658.0,330.0 657.9568426722637,331.0984273401898 657.8276367683319,332.19008251056323 657.6131788855674,333.2682350939827 657.3147912281321,334.3262379212493 656.934313455158,335.35756805311127 656.4740913386371,336.35586699635365 655.9369623009572,337.31497990602327 655.3262379212492,338.22899353209465 654.6456835184005,339.09227267662254 653.8994949366116,339.8994949366117 653.0922726766225,340.64568351840046 652.2289935320946,341.3262379212493 651.3149799060233,341.9369623009573 650.3558669963537,342.47409133863715 649.3575680531112,342.934313455158 648.3262379212492,343.31479122813215 647.2682350939826,343.6131788855675 646.1900825105632,343.8276367683319 645.0984273401898,343.9568426722638 644.0,344.0 602.0,344.0 602.0,344.0 600.9015726598102,343.9568426722638 599.8099174894368,343.8276367683319 598.7317649060174,343.6131788855675 597.6737620787508,343.31479122813215 596.6424319468888,342.934313455158 595.6441330036464,342.47409133863715 594.6850200939767,341.9369623009573 593.7710064679054,341.3262379212493 592.9077273233775,340.64568351840046 592.1005050633884,339.8994949366117 591.3543164815995,339.0922726766226 590.6737620787508,338.22899353209465 590.0630376990428,337.31497990602327 589.5259086613629,336.35586699635365 589.065686544842,335.35756805311127 588.6852087718679,334.3262379212493 588.3868211144326,333.2682350939827 588.1723632316681,332.19008251056323 588.0431573277363,331.09842734018986 588.0,305.0" stroke="#000" fill="#fff" stroke-width="3.0" fill-rule="evenodd" stroke-linejoin="round"/><text x="623.0" y="299" fill="#000" stroke-width="0.0" text-anchor="middle" font-family="DejaVu Sans Mono" font-size="18.0pt" font-weight="bold">len</text><polygon points="588.0,471.0 588.0,456.0 588.0,456.0 588.0431573277363,454.9015726598102 588.1723632316681,453.80991748943677 588.3868211144326,452.7317649060173 588.6852087718678,451.6737620787507 589.065686544842,450.64243194688873 589.5259086613629,449.64413300364635 590.0630376990428,448.68502009397673 590.6737620787508,447.77100646790535 591.3543164815995,446.90772732337746 592.1005050633884,446.1005050633883 592.9077273233775,445.3543164815996 593.7710064679054,444.6737620787507 594.6850200939767,444.0630376990427 595.6441330036463,443.52590866136285 596.6424319468888,443.065686544842 597.6737620787508,442.68520877186785 598.7317649060174,442.3868211144325 599.8099174894368,442.1723632316681 600.9015726598102,442.0431573277362 602.0,442.0 644.0,442.0 644.0,442.0 645.0984273401898,442.0431573277362 646.1900825105632,442.1723632316681 647.2682350939826,442.3868211144325 648.3262379212492,442.68520877186785 649.3575680531112,443.065686544842 650.3558669963536,443.52590866136285 651.3149799060233,444.0630376990427 652.2289935320946,444.6737620787507 653.0922726766225,445.35431648159954 653.8994949366116,446.1005050633883 654.6456835184005,446.9077273233774 655.3262379212492,447.77100646790535 655.9369623009572,448.68502009397673 656.4740913386371,449.64413300364635 656.934313455158,450.64243194688873 657.3147912281321,451.6737620787507 657.6131788855674,452.7317649060173 657.8276367683319,453.80991748943677 657.9568426722637,454.90157265981014 658.0,456.0 658.0,471.0" stroke="#000" fill="#ddd" stroke-width="3.0" fill-rule="evenodd" stroke-linejoin="round"/><polygon points="588.0,471.0 658.0,471.0 658.0,496.0 658.0,496.0 657.9568426722637,497.0984273401898 657.8276367683319,498.19008251056323 657.6131788855674,499.2682350939827 657.3147912281321,500.3262379212493 656.934313455158,501.35756805311127 656.4740913386371,502.35586699635365 655.9369623009572,503.31497990602327 655.3262379212492,504.22899353209465 654.6456835184005,505.09227267662254 653.8994949366116,505.8994949366117 653.0922726766225,506.64568351840046 652.2289935320946,507.3262379212493 651.3149799060233,507.9369623009573 650.3558669963537,508.47409133863715 649.3575680531112,508.934313455158 648.3262379212492,509.31479122813215 647.2682350939826,509.6131788855675 646.1900825105632,509.8276367683319 645.0984273401898,509.9568426722638 644.0,510.0 602.0,510.0 602.0,510.0 600.9015726598102,509.9568426722638 599.8099174894368,509.8276367683319 598.7317649060174,509.6131788855675 597.6737620787508,509.31479122813215 596.6424319468888,508.934313455158 595.6441330036464,508.47409133863715 594.6850200939767,507.9369623009573 593.7710064679054,507.3262379212493 592.9077273233775,506.64568351840046 592.1005050633884,505.8994949366117 591.3543164815995,505.0922726766226 590.6737620787508,504.22899353209465 590.0630376990428,503.31497990602327 589.5259086613629,502.35586699635365 589.065686544842,501.35756805311127 588.6852087718679,500.3262379212493 588.3868211144326,499.2682350939827 588.1723632316681,498.19008251056323 588.0431573277363,497.09842734018986 588.0,471.0" stroke="#000" fill="#fff" stroke-width="3.0" fill-rule="evenodd" stroke-linejoin="round"/><text x="623.0" y="465" fill="#000" stroke-width="0.0" text-anchor="middle" font-family="DejaVu Sans Mono" font-size="18.0pt" font-weight="bold">len</text><polygon points="893.0,378.0 893.0,363.0 893.0,363.0 893.0431573277363,361.9015726598102 893.1723632316681,360.80991748943677 893.3868211144326,359.7317649060173 893.6852087718678,358.6737620787507 894.065686544842,357.64243194688873 894.5259086613629,356.64413300364635 895.0630376990428,355.68502009397673 895.6737620787508,354.77100646790535 896.3543164815995,353.90772732337746 897.1005050633884,353.1005050633883 897.9077273233775,352.3543164815996 898.7710064679054,351.6737620787507 899.6850200939767,351.0630376990427 900.6441330036463,350.52590866136285 901.6424319468888,350.065686544842 902.6737620787508,349.68520877186785 903.7317649060174,349.3868211144325 904.8099174894368,349.1723632316681 905.9015726598102,349.0431573277362 907.0,349.0 939.0,349.0 939.0,349.0 940.0984273401898,349.0431573277362 941.1900825105632,349.1723632316681 942.2682350939826,349.3868211144325 943.3262379212492,349.68520877186785 944.3575680531112,350.065686544842 945.3558669963536,350.52590866136285 946.3149799060233,351.0630376990427 947.2289935320946,351.6737620787507 948.0922726766225,352.35431648159954 948.8994949366116,353.1005050633883 949.6456835184005,353.9077273233774 950.3262379212492,354.77100646790535 950.9369623009572,355.68502009397673 951.4740913386371,356.64413300364635 951.934313455158,357.64243194688873 952.3147912281321,358.6737620787507 952.6131788855674,359.7317649060173 952.8276367683319,360.80991748943677 952.9568426722637,361.90157265981014 953.0,363.0 953.0,378.0" stroke="#000" fill="#ddd" stroke-width="3.0" fill-rule="evenodd" stroke-linejoin="round"/><polygon points="893.0,378.0 953.0,378.0 953.0,422.0 953.0,422.0 952.9568426722637,423.0984273401898 952.8276367683319,424.19008251056323 952.6131788855674,425.2682350939827 952.3147912281321,426.3262379212493 951.934313455158,427.35756805311127 951.4740913386371,428.35586699635365 950.9369623009572,429.31497990602327 950.3262379212492,430.22899353209465 949.6456835184005,431.09227267662254 948.8994949366116,431.8994949366117 948.0922726766225,432.64568351840046 947.2289935320946,433.3262379212493 946.3149799060233,433.9369623009573 945.3558669963537,434.47409133863715 944.3575680531112,434.934313455158 943.3262379212492,435.31479122813215 942.2682350939826,435.6131788855675 941.1900825105632,435.8276367683319 940.0984273401898,435.9568426722638 939.0,436.0 907.0,436.0 907.0,436.0 905.9015726598102,435.9568426722638 904.8099174894368,435.8276367683319 903.7317649060174,435.6131788855675 902.6737620787508,435.31479122813215 901.6424319468888,434.934313455158 900.6441330036464,434.47409133863715 899.6850200939767,433.9369623009573 898.7710064679054,433.3262379212493 897.9077273233775,432.64568351840046 897.1005050633884,431.8994949366117 896.3543164815995,431.0922726766226 895.6737620787508,430.22899353209465 895.0630376990428,429.31497990602327 894.5259086613629,428.35586699635365 894.065686544842,427.35756805311127 893.6852087718679,426.3262379212493 893.3868211144326,425.2682350939827 893.1723632316681,424.19008251056323 893.0431573277363,423.09842734018986 893.0,378.0" stroke="#000" fill="#fff" stroke-width="3.0" fill-rule="evenodd" stroke-linejoin="round"/><text x="923.0" y="372" fill="#000" stroke-width="0.0" text-anchor="middle" font-family="DejaVu Sans Mono" font-size="18.0pt" font-weight="bold">+</text><polygon points="576.0,318.0 588.0,324.0 576.0,330.0" fill="#000" fill-rule="evenodd" stroke-linejoin="round"/><text x="590.0" y="330" fill="#000" stroke-width="0.0" font-family="DejaVu Sans Mono" font-size="12.0pt">obj</text><polygon points="646.0,318.0 658.0,324.0 646.0,330.0" fill="#000" fill-rule="evenodd" stroke-linejoin="round"/><text x="661.0" y="320" fill="#000" stroke-width="0.0" font-family="DejaVu Sans Mono" font-size="12.0pt"></text><polygon points="646.0,484.0 658.0,490.0 646.0,496.0" fill="#000" fill-rule="evenodd" stroke-linejoin="round"/><text x="661.0" y="486" fill="#000" stroke-width="0.0" font-family="DejaVu Sans Mono" font-size="12.0pt"></text><polygon points="881.0,391.0 893.0,397.0 881.0,403.0" fill="#000" fill-rule="evenodd" stroke-linejoin="round"/><text x="895.0" y="403" fill="#000" stroke-width="0.0" font-family="DejaVu Sans Mono" font-size="12.0pt"> </text><polygon points="881.0,410.0 893.0,416.0 881.0,422.0" fill="#000" fill-rule="evenodd" stroke-linejoin="round"/><text x="895.0" y="422" fill="#000" stroke-width="0.0" font-family="DejaVu Sans Mono" font-size="12.0pt">  </text><polygon points="941.0,401.0 953.0,407.0 941.0,413.0" fill="#000" fill-rule="evenodd" stroke-linejoin="round"/><text x="956.0" y="403" fill="#000" stroke-width="0.0" font-family="DejaVu Sans Mono" font-size="12.0pt"></text><polygon points="576.0,484.0 588.0,490.0 576.0,496.0" fill="#000" fill-rule="evenodd" stroke-linejoin="round"/><text x="590.0" y="496" fill="#000" stroke-width="0.0" font-family="DejaVu Sans Mono" font-size="12.0pt">obj</text><circle cx="1119.0" cy="407.0" r="6.0" stroke="#000" fill="#000"/><text x="1109.0" y="393" fill="#000" stroke-width="0.0" font-family="DejaVu Sans Mono" font-size="12.0pt">13</text><circle cx="414.0" cy="324.0" r="6.0" stroke="#000" fill="#000"/><text x="374.0" y="310" fill="#000" stroke-width="0.0" font-family="DejaVu Sans Mono" font-size="12.0pt">&quot;Coucou&quot;</text><circle cx="775.0" cy="340.5" r="6.0" stroke="#000" fill="#000"/><text x="770.0" y="327" fill="#000" stroke-width="0.0" font-family="DejaVu Sans Mono" font-size="12.0pt">6</text><circle cx="414.0" cy="490.0" r="6.0" stroke="#000" fill="#000"/><text x="369.0" y="476" fill="#000" stroke-width="0.0" font-family="DejaVu Sans Mono" font-size="12.0pt">&quot;Maurice&quot;</text><circle cx="775.0" cy="473.0" r="6.0" stroke="#000" fill="#000"/><text x="770.0" y="459" fill="#000" stroke-width="0.0" font-family="DejaVu Sans Mono" font-size="12.0pt">7</text><path d="M588.0,324.0 Q544.0,324.0 522.5,324.0 T479.0,324.0 T414.0,324.0" stroke="#000" fill="none"/><path d="M658.0,324.0 Q687.0,324.0 701.5,328.0 T730.5,336.25 T775.0,340.5" stroke="#000" fill="none"/><path d="M658.0,490.0 Q687.0,490.0 701.5,485.5 T730.5,477.0 T775.0,473.0" stroke="#000" fill="none"/><path d="M893.0,397.0 Q863.0,397.0 848.5,382.5 T819.0,354.25 T775.0,340.5" stroke="#000" fill="none"/><path d="M893.0,416.0 Q863.0,416.0 848.5,430.0 T819.0,458.5 T775.0,473.0" stroke="#000" fill="none"/><path d="M953.0,407.0 Q994.0,407.0 1015.0,407.0 T1056.5,407.0 T1119.0,407.0" stroke="#000" fill="none"/><path d="M588.0,490.0 Q544.0,490.0 522.5,490.0 T479.0,490.0 T414.0,490.0" stroke="#000" fill="none"/></svg>