<?xml version="1.0" ?><!DOCTYPE svg  PUBLIC '-//W3C//DTD SVG 1.1//EN'  'http://www.w3.org/Graphics/SVG/1.1/DTD/svg11.dtd'><svg xmlns="http://www.w3.org/2000/svg" width="419.0" height="94.0" viewBox="459.0 230.0 419.0 94.0"><rect x="459.0" y="230.0" width="419.0" height="94.0" style="fill:white;fill-opacity:0.8" /><polygon points="579.0,272.0 579.0,257.0 579.0,257.0 579.0431573277363,255.90157265981017 579.1723632316681,254.80991748943677 579.3868211144326,253.73176490601733 579.6852087718678,252.67376207875074 580.065686544842,251.64243194688873 580.5259086613629,250.64413300364635 581.0630376990428,249.68502009397673 581.6737620787508,248.77100646790538 582.3543164815995,247.90772732337743 583.1005050633884,247.10050506338834 583.9077273233775,246.35431648159957 584.7710064679054,245.67376207875074 585.6850200939767,245.0630376990427 586.6441330036463,244.52590866136285 587.6424319468888,244.06568654484198 588.6737620787508,243.68520877186785 589.7317649060174,243.38682111443254 590.8099174894368,243.17236323166807 591.9015726598102,243.0431573277362 593.0,243.0 665.0,243.0 665.0,243.0 666.0984273401898,243.0431573277362 667.1900825105632,243.17236323166807 668.2682350939826,243.38682111443254 669.3262379212492,243.68520877186785 670.3575680531112,244.06568654484198 671.3558669963536,244.52590866136285 672.3149799060233,245.0630376990427 673.2289935320946,245.67376207875074 674.0922726766225,246.35431648159957 674.8994949366116,247.10050506338834 675.6456835184005,247.90772732337743 676.3262379212492,248.77100646790538 676.9369623009572,249.68502009397673 677.4740913386371,250.64413300364635 677.934313455158,251.64243194688873 678.3147912281321,252.67376207875074 678.6131788855674,253.73176490601733 678.8276367683319,254.80991748943677 678.9568426722637,255.90157265981017 679.0,257.0 679.0,272.0" stroke="#000" fill="#ddd" stroke-width="3.0" fill-rule="evenodd" stroke-linejoin="round"/><polygon points="579.0,272.0 679.0,272.0 679.0,297.0 679.0,297.0 678.9568426722637,298.0984273401898 678.8276367683319,299.19008251056323 678.6131788855674,300.2682350939827 678.3147912281321,301.3262379212493 677.934313455158,302.35756805311127 677.4740913386371,303.35586699635365 676.9369623009572,304.31497990602327 676.3262379212492,305.22899353209465 675.6456835184005,306.09227267662254 674.8994949366116,306.8994949366117 674.0922726766225,307.64568351840046 673.2289935320946,308.3262379212493 672.3149799060233,308.9369623009573 671.3558669963537,309.47409133863715 670.3575680531112,309.934313455158 669.3262379212492,310.31479122813215 668.2682350939826,310.6131788855675 667.1900825105632,310.8276367683319 666.0984273401898,310.9568426722638 665.0,311.0 593.0,311.0 593.0,311.0 591.9015726598102,310.9568426722638 590.8099174894368,310.8276367683319 589.7317649060174,310.6131788855675 588.6737620787508,310.31479122813215 587.6424319468888,309.934313455158 586.6441330036464,309.47409133863715 585.6850200939767,308.9369623009573 584.7710064679054,308.3262379212493 583.9077273233775,307.64568351840046 583.1005050633884,306.8994949366117 582.3543164815995,306.0922726766226 581.6737620787508,305.22899353209465 581.0630376990428,304.31497990602327 580.5259086613629,303.35586699635365 580.065686544842,302.35756805311127 579.6852087718679,301.3262379212493 579.3868211144326,300.2682350939827 579.1723632316681,299.19008251056323 579.0431573277363,298.09842734018986 579.0,272.0" stroke="#000" fill="#fff" stroke-width="3.0" fill-rule="evenodd" stroke-linejoin="round"/><text x="629.0" y="266" fill="#000" stroke-width="0.0" text-anchor="middle" font-family="DejaVu Sans Mono" font-size="18.0pt" font-weight="bold">bin</text><polygon points="567.0,285.0 579.0,291.0 567.0,297.0" fill="#000" fill-rule="evenodd" stroke-linejoin="round"/><text x="581.0" y="297" fill="#000" stroke-width="0.0" font-family="DejaVu Sans Mono" font-size="12.0pt">number</text><polygon points="667.0,285.0 679.0,291.0 667.0,297.0" fill="#000" fill-rule="evenodd" stroke-linejoin="round"/><text x="682.0" y="287" fill="#000" stroke-width="0.0" font-family="DejaVu Sans Mono" font-size="12.0pt"></text><circle cx="757.0" cy="291.0" r="6.0" stroke="#000" fill="#000"/><text x="757.0" y="277" fill="#000" stroke-width="0.0" font-family="DejaVu Sans Mono" font-size="12.0pt">'0b1111011'</text><circle cx="500.0" cy="291.0" r="6.0" stroke="#000" fill="#000"/><text x="470.0" y="277" fill="#000" stroke-width="0.0" font-family="DejaVu Sans Mono" font-size="12.0pt">123</text><path d="M579.0,291.0 Q559.0,291.0 549.0,291.0 T529.0,291.0 T500.0,291.0" stroke="#000" fill="none"/><path d="M679.0,291.0 Q698.0,291.0 708.0,291.0 T727.5,291.0 T757.0,291.0" stroke="#000" fill="none"/></svg>